#N canvas 94 208 710 453 10;
#X declare -path ./lib -path ../lib;
#X obj 41 271 hsl 128 15 40 100 0 0 master-volume master-volume-set
master-volume 8 8 0 12 -262144 -1 -1 10583 1;
#N canvas 348 328 629 706 gem 0;
#X obj 109 469 gemlist;
#X obj 109 532 translateXYZ;
#X obj 109 490 separator;
#N canvas 116 174 484 381 coords 0;
#X obj 62 250 r coord-x;
#X obj 161 190 r coord-y;
#X obj 44 298 outlet;
#X obj 143 238 outlet;
#X obj 320 148 outlet;
#X obj 196 155 outlet;
#X obj 44 9 inlet;
#X obj 320 107 list;
#X obj 214 110 r coord-z;
#X obj 196 134 f;
#X obj 44 277 f;
#X obj 143 217 f;
#X obj 341 70 r coord-RGB;
#X obj 44 30 t b b b b;
#X connect 0 0 10 1;
#X connect 1 0 11 1;
#X connect 6 0 13 0;
#X connect 7 0 4 0;
#X connect 8 0 9 1;
#X connect 9 0 5 0;
#X connect 10 0 2 0;
#X connect 11 0 3 0;
#X connect 12 0 7 1;
#X connect 13 0 10 0;
#X connect 13 1 11 0;
#X connect 13 2 9 0;
#X connect 13 3 7 0;
#X restore 181 490 pd coords;
#X obj 93 290 t f b;
#X obj 93 317 until;
#X obj 122 358 + 1;
#X msg 108 337 0;
#N canvas 81 86 472 580 mouseover 0;
#X obj 62 411 translateXYZ;
#X obj 80 457 r lb1;
#X obj 162 479 r mouse-radius;
#X obj 62 510 circle 0.1;
#X obj 76 90 r lb1;
#X msg 76 111 0;
#X obj 62 139 gemhead 70;
#X obj 62 160 alpha;
#X msg 80 479 draw fill;
#X obj 62 190 color 0 1 0 0.2;
#X obj 85 228 gemmouse 1 1;
#N canvas 364 207 418 257 draw-prep-x 0;
#X obj 85 58 inlet;
#X obj 85 169 outlet;
#X obj 162 64 r gem-x-range;
#X obj 162 86 / 2;
#X obj 85 108 *;
#X obj 85 129 -;
#X connect 0 0 4 0;
#X connect 2 0 3 0;
#X connect 2 0 4 1;
#X connect 3 0 5 1;
#X connect 4 0 5 0;
#X connect 5 0 1 0;
#X restore 85 314 pd draw-prep-x;
#N canvas 364 207 223 257 draw-prep-y 0;
#X obj 37 30 inlet;
#X obj 37 161 outlet;
#X obj 37 67 swap 1;
#X obj 37 89 -;
#X obj 90 122 / 2;
#X obj 90 100 r gem-y-range;
#X obj 37 110 *;
#X obj 37 131 -;
#X connect 0 0 2 0;
#X connect 2 0 3 0;
#X connect 2 1 3 1;
#X connect 3 0 6 0;
#X connect 4 0 7 1;
#X connect 5 0 4 0;
#X connect 5 0 6 1;
#X connect 6 0 7 0;
#X connect 7 0 1 0;
#X restore 185 314 pd draw-prep-y;
#X obj 62 22 r mouseover-on;
#N canvas 352 217 312 350 coord-nearest 0;
#X obj 80 136 inlet;
#X obj 183 136 inlet;
#X obj 62 226 pack f f;
#X obj 62 91 t b b;
#X obj 62 268 s coord-nearest;
#X obj 62 8 r mouseover-on;
#X obj 166 186 f;
#X obj 62 182 f;
#X obj 62 70 metro 33.3333;
#X connect 0 0 7 1;
#X connect 1 0 6 1;
#X connect 2 0 4 0;
#X connect 3 0 7 0;
#X connect 3 1 6 0;
#X connect 5 0 8 0;
#X connect 6 0 2 1;
#X connect 7 0 2 0;
#X connect 8 0 3 0;
#X restore 188 388 pd coord-nearest;
#X floatatom 162 501 5 0 0 0 - - -, f 5;
#X connect 0 0 3 0;
#X connect 1 0 8 0;
#X connect 2 0 3 1;
#X connect 2 0 15 0;
#X connect 4 0 5 0;
#X connect 5 0 6 0;
#X connect 6 0 7 0;
#X connect 7 0 9 0;
#X connect 8 0 3 0;
#X connect 9 0 0 0;
#X connect 10 0 11 0;
#X connect 10 1 12 0;
#X connect 11 0 0 1;
#X connect 11 0 14 0;
#X connect 12 0 0 2;
#X connect 12 0 14 1;
#X connect 13 0 6 0;
#X restore 321 187 pd mouseover;
#X obj 109 553 color;
#N canvas 1004 674 353 360 reset-rendering 0;
#X obj 34 20 r render-plot;
#X obj 34 289 outlet;
#X obj 34 222 r render-points;
#X msg 34 89 \; coord-add-spigot 1 \; render-points 1 \;;
#X obj 52 251 tgl 15 0 empty empty empty 17 7 0 10 -262144 -1 -1 0
1;
#X connect 0 0 3 0;
#X connect 2 0 1 0;
#X connect 2 0 4 0;
#X restore 121 16 pd reset-rendering;
#X obj 208 553 r point-size;
#X obj 208 574 t b f;
#X obj 208 595 s render-plot;
#X obj 121 38 gemhead 50;
#X obj 121 114 rotateXYZ;
#X obj 200 97 r rotate-x;
#X obj 280 97 r rotate-y;
#X obj 360 97 r rotate-z;
#X obj 121 89 ortho;
#N canvas 465 165 499 555 snapshot 0;
#X obj 221 35 inlet;
#X obj 236 135 - 1;
#X obj 221 90 spigot;
#X obj 94 445 pix_texture;
#X obj 94 123 gemhead 60;
#X msg 119 316 snap;
#X obj 182 234 t b b;
#X msg 182 286 0;
#X obj 182 307 s render-points-set;
#X obj 94 144 t a b;
#X obj 221 161 select;
#N canvas 0 22 331 285 once 0;
#X obj 37 37 inlet;
#X obj 37 109 spigot 1;
#X obj 37 131 t b b;
#X obj 37 213 outlet;
#X msg 132 80 0;
#X msg 172 80 1;
#X obj 172 37 inlet;
#X connect 0 0 1 0;
#X connect 1 0 2 0;
#X connect 2 0 3 0;
#X connect 2 1 4 0;
#X connect 4 0 1 1;
#X connect 5 0 1 1;
#X connect 6 0 5 0;
#X restore 182 206 pd once;
#X obj 236 114 r num-frames-total;
#X obj 94 35 r render-snapshot;
#X msg 283 411 file \$1 1;
#X obj 283 432 t b a;
#X obj 283 390 savepanel;
#X obj 283 351 r save-plot;
#X text 138 377 pix_snap 0 0 800 600;
#X text 324 492 pix_write 0 0 800 600;
#X obj 94 354 pix_snap 0 0 1280 720;
#X obj 248 469 pix_write 0 0 1280 720;
#X text 125 502 rectangle 5.33333 4;
#X obj 94 479 rectangle 7.11111 4;
#X connect 0 0 2 0;
#X connect 1 0 10 1;
#X connect 2 0 10 0;
#X connect 3 0 23 0;
#X connect 4 0 9 0;
#X connect 5 0 20 0;
#X connect 6 0 7 0;
#X connect 6 1 5 0;
#X connect 7 0 8 0;
#X connect 9 0 20 0;
#X connect 9 1 11 0;
#X connect 10 0 11 1;
#X connect 11 0 6 0;
#X connect 12 0 1 0;
#X connect 13 0 4 0;
#X connect 13 0 2 1;
#X connect 14 0 15 0;
#X connect 15 0 21 0;
#X connect 15 1 21 0;
#X connect 16 0 14 0;
#X connect 17 0 16 0;
#X connect 20 0 3 0;
#X connect 20 0 21 0;
#X restore 21 440 pd snapshot;
#N canvas 710 130 303 172 lighting 0;
#X obj 113 122 world_light;
#X obj 113 67 gemhead 45;
#X obj 113 15 r render-light;
#X connect 1 0 0 0;
#X connect 2 0 1 0;
#X restore 321 207 pd lighting;
#X obj 93 269 f;
#X obj 93 358 f;
#N canvas 378 49 876 668 zooming 0;
#X obj 42 286 f;
#X obj 42 308 change;
#X obj 72 286 r zoom-control-x-range;
#X obj 42 252 r zoom-control-update;
#X obj 94 101 s zoom-control-update;
#X obj 42 333 t b f;
#X obj 42 394 s render-plot;
#X obj 80 363 s x-range;
#X obj 262 286 f;
#X obj 262 308 change;
#X obj 262 252 r zoom-control-update;
#X obj 262 333 t b f;
#X obj 262 394 s render-plot;
#X obj 292 286 r zoom-control-y-range;
#X obj 300 363 s y-range;
#X obj 42 486 f;
#X obj 42 508 change;
#X obj 42 452 r zoom-control-update;
#X obj 42 533 t b f;
#X obj 42 594 s render-plot;
#X obj 262 486 f;
#X obj 262 508 change;
#X obj 262 452 r zoom-control-update;
#X obj 262 533 t b f;
#X obj 262 594 s render-plot;
#X obj 72 486 r zoom-control-x-offset;
#X obj 292 486 r zoom-control-y-offset;
#X obj 300 563 s y-offset;
#X obj 80 563 s x-offset;
#X obj 424 42 r reset-axes;
#X obj 94 51 r lb1;
#X obj 482 286 f;
#X obj 482 308 change;
#X obj 482 252 r zoom-control-update;
#X obj 482 333 t b f;
#X obj 482 394 s render-plot;
#X obj 482 486 f;
#X obj 482 508 change;
#X obj 482 452 r zoom-control-update;
#X obj 482 533 t b f;
#X obj 482 594 s render-plot;
#X obj 512 286 r zoom-control-z-range;
#X obj 520 363 s z-range;
#X obj 512 486 r zoom-control-z-offset;
#X obj 520 563 s z-offset;
#X obj 94 79 metro 33.3333;
#X msg 424 64 \; zoom-control-x-range-set 13.5 \; zoom-control-y-range-set
7.6 \; zoom-control-z-range-set 7.6 \; zoom-control-x-offset-set 0
\; zoom-control-y-offset-set 0 \; zoom-control-z-offset-set 0 \;;
#X connect 0 0 1 0;
#X connect 1 0 5 0;
#X connect 2 0 0 1;
#X connect 3 0 0 0;
#X connect 5 0 6 0;
#X connect 5 1 7 0;
#X connect 8 0 9 0;
#X connect 9 0 11 0;
#X connect 10 0 8 0;
#X connect 11 0 12 0;
#X connect 11 1 14 0;
#X connect 13 0 8 1;
#X connect 15 0 16 0;
#X connect 16 0 18 0;
#X connect 17 0 15 0;
#X connect 18 0 19 0;
#X connect 18 1 28 0;
#X connect 20 0 21 0;
#X connect 21 0 23 0;
#X connect 22 0 20 0;
#X connect 23 0 24 0;
#X connect 23 1 27 0;
#X connect 25 0 15 1;
#X connect 26 0 20 1;
#X connect 29 0 46 0;
#X connect 30 0 45 0;
#X connect 31 0 32 0;
#X connect 32 0 34 0;
#X connect 33 0 31 0;
#X connect 34 0 35 0;
#X connect 34 1 42 0;
#X connect 36 0 37 0;
#X connect 37 0 39 0;
#X connect 38 0 36 0;
#X connect 39 0 40 0;
#X connect 39 1 44 0;
#X connect 41 0 31 1;
#X connect 43 0 36 1;
#X connect 45 0 4 0;
#X restore 321 227 pd zooming;
#X obj 141 63 r ortho-switch;
#N canvas 483 74 562 673 coord-storage 0;
#X obj 180 16 inlet;
#X obj 252 133 r coord-y;
#X obj 222 104 r coord-x;
#X obj 207 409 spigot;
#X obj 50 140 - 1;
#X msg 325 275 clear;
#X obj 302 359 r mouse-radius;
#X obj 288 312 r coord-nearest;
#X obj 298 205 r coord-add-spigot;
#X obj 325 252 select 1;
#X obj 298 226 t f f;
#X obj 246 388 < 0.1;
#X obj 207 537 spigot;
#X msg 246 513 0;
#X msg 286 513 1;
#X obj 286 472 select 0;
#X obj 355 466 change;
#X obj 355 487 t b;
#X obj 207 430 t f f;
#X obj 207 558 t f b;
#X obj 57 180 select;
#X obj 207 272 spigot;
#X obj 207 150 f;
#X obj 207 579 s trig-sound;
#X obj 50 119 r num-frames-total;
#X floatatom 330 335 5 0 0 0 - - -, f 5;
#X obj 180 37 t f b;
#X obj 207 333 nearestPoint 2;
#X obj 207 171 pack f f;
#X msg 57 201 \; coord-add-spigot 0 \;;
#X connect 0 0 26 0;
#X connect 1 0 28 1;
#X connect 2 0 22 1;
#X connect 3 0 18 0;
#X connect 4 0 20 1;
#X connect 5 0 27 0;
#X connect 6 0 11 1;
#X connect 7 0 27 1;
#X connect 8 0 10 0;
#X connect 9 0 5 0;
#X connect 10 0 21 1;
#X connect 10 1 9 0;
#X connect 11 0 3 1;
#X connect 11 0 15 0;
#X connect 12 0 19 0;
#X connect 13 0 12 1;
#X connect 14 0 12 1;
#X connect 15 0 14 0;
#X connect 16 0 17 0;
#X connect 17 0 14 0;
#X connect 18 0 12 0;
#X connect 18 1 16 0;
#X connect 19 0 23 0;
#X connect 19 1 13 0;
#X connect 20 0 29 0;
#X connect 21 0 27 0;
#X connect 22 0 28 0;
#X connect 24 0 4 0;
#X connect 26 0 20 0;
#X connect 26 1 22 0;
#X connect 27 0 3 0;
#X connect 27 1 11 0;
#X connect 27 1 25 0;
#X connect 28 0 21 0;
#X restore 288 516 pd coord-storage;
#X obj 93 388 t f b b f f;
#X obj 108 249 r num-frames-total;
#X obj 121 142 t a a;
#X obj 121 163 route gem_state;
#X obj 121 184 route float;
#X obj 93 226 t b;
#N canvas 669 243 901 688 gemwin-settings 0;
#X msg 23 326 frame \$1;
#X floatatom 23 305 5 0 0 0 - - -, f 5;
#X obj 550 366 r \$0-gemwin-settings;
#X obj 23 347 s \$0-gemwin-settings;
#X obj 172 372 s \$0-gemwin-settings;
#X obj 216 311 s \$0-gemwin-settings;
#X msg 172 341 color 0 0 0;
#X obj 307 264 s \$0-gemwin-settings;
#X obj 599 179 s \$0-gemwin-settings;
#X obj 599 139 tgl 15 0 empty empty empty 17 7 0 10 -262144 -1 -1 0
1;
#X msg 599 158 fullscreen \$1;
#X obj 599 263 s \$0-gemwin-settings;
#X obj 599 223 tgl 15 0 empty empty empty 17 7 0 10 -262144 -1 -1 0
1;
#X msg 599 242 border \$1;
#X obj 351 206 s \$0-gemwin-settings;
#X msg 475 68 reset;
#X obj 475 93 s \$0-gemwin-settings;
#X obj 341 146 s \$0-gemwin-settings;
#X msg 341 123 title timbreSpace;
#X obj 103 51 t b b b b b b b b;
#X obj 539 313 s \$0-gemwin-settings;
#X msg 539 292 print;
#X obj 374 461 select 1 0;
#X msg 374 493 create \, 1;
#X msg 449 494 destroy;
#X obj 550 568 gemwin;
#X obj 550 407 t a a;
#X obj 612 445 route create destroy;
#X msg 652 509 1;
#X msg 710 509 0;
#X msg 684 553 set \$1;
#X obj 374 440 r render-on;
#X obj 684 575 s render-on-set;
#X obj 710 487 t b b;
#X msg 746 515 \; mouseover-on-set 0 \;;
#X obj 374 538 s \$0-gemwin-settings;
#X obj 103 30 r lb1;
#X msg 307 243 lighting 1;
#X msg 23 277 20;
#X msg 382 356 dimen 1440 810;
#X msg 382 376 dimen 800 600;
#X msg 351 183 offset 0 0;
#X msg 382 336 dimen 1280 720;
#X msg 216 290 dimen 1280 720;
#X obj 612 467 t b b;
#X obj 612 579 delay 100;
#X msg 612 606 \; render-plot-set bang \;;
#X connect 0 0 3 0;
#X connect 1 0 0 0;
#X connect 2 0 26 0;
#X connect 6 0 4 0;
#X connect 9 0 10 0;
#X connect 10 0 8 0;
#X connect 12 0 13 0;
#X connect 13 0 11 0;
#X connect 15 0 16 0;
#X connect 18 0 17 0;
#X connect 19 0 38 0;
#X connect 19 1 6 0;
#X connect 19 2 43 0;
#X connect 19 3 37 0;
#X connect 19 4 41 0;
#X connect 19 5 18 0;
#X connect 19 7 15 0;
#X connect 21 0 20 0;
#X connect 22 0 23 0;
#X connect 22 1 24 0;
#X connect 23 0 35 0;
#X connect 24 0 35 0;
#X connect 26 0 25 0;
#X connect 26 1 27 0;
#X connect 27 0 44 0;
#X connect 27 1 33 0;
#X connect 28 0 30 0;
#X connect 29 0 30 0;
#X connect 30 0 32 0;
#X connect 31 0 22 0;
#X connect 33 0 29 0;
#X connect 33 1 34 0;
#X connect 36 0 19 0;
#X connect 37 0 7 0;
#X connect 38 0 1 0;
#X connect 41 0 14 0;
#X connect 43 0 5 0;
#X connect 44 0 45 0;
#X connect 44 1 28 0;
#X connect 45 0 46 0;
#X restore 321 167 pd gemwin-settings;
#X msg 28 50 compat 0;
#X obj 28 30 r lb1;
#X obj 320 465 s get-feature;
#X obj 109 619 sphere 0.03 5;
#X obj 427 282 r analysis-finished;
#X obj 427 304 s render-plot-set;
#X connect 0 0 2 0;
#X connect 1 0 9 0;
#X connect 2 0 1 0;
#X connect 3 0 1 1;
#X connect 3 1 1 2;
#X connect 3 2 1 3;
#X connect 3 3 9 1;
#X connect 4 0 5 0;
#X connect 4 1 7 0;
#X connect 5 0 23 0;
#X connect 6 0 23 1;
#X connect 7 0 23 1;
#X connect 9 0 37 0;
#X connect 10 0 14 0;
#X connect 11 0 12 0;
#X connect 12 0 13 0;
#X connect 12 1 37 1;
#X connect 14 0 19 0;
#X connect 15 0 29 0;
#X connect 16 0 15 1;
#X connect 17 0 15 2;
#X connect 18 0 15 3;
#X connect 19 0 15 0;
#X connect 22 0 4 0;
#X connect 23 0 6 0;
#X connect 23 0 27 0;
#X connect 25 0 19 0;
#X connect 27 0 20 0;
#X connect 27 1 0 0;
#X connect 27 2 3 0;
#X connect 27 3 26 0;
#X connect 27 4 36 0;
#X connect 28 0 22 1;
#X connect 29 0 30 0;
#X connect 29 1 0 1;
#X connect 30 0 31 0;
#X connect 31 1 32 0;
#X connect 32 0 22 0;
#X connect 34 0 19 0;
#X connect 35 0 34 0;
#X connect 38 0 39 0;
#X restore 588 136 pd gem;
#X obj 41 316 hsl 128 15 0.05 1 0 0 mouse-radius mouse-radius-set mouse-radius
8 8 0 12 -262144 -1 -1 2674 1;
#X obj 41 339 hsl 128 15 0.03 0.25 0 0 point-size empty point-size
8 8 0 12 -262144 -1 -1 0 1;
#N canvas 683 224 603 693 set-dimensions 0;
#X obj 53 222 hradio 10 1 1 35 R-mapping R-mapping-set empty 0 -8 0
10 -258113 -1 -1 28;
#X obj 53 242 hradio 10 1 1 35 G-mapping G-mapping-set empty 0 -8 0
10 -4034 -1 -1 29;
#X obj 53 262 hradio 10 1 1 35 B-mapping B-mapping-set empty 0 -8 0
10 -4032 -1 -1 30;
#X obj 53 56 hradio 10 1 0 35 x-mapping x-mapping-set X -16 5 0 12
-262144 -1 -1 28;
#X obj 53 76 hradio 10 1 0 35 y-mapping y-mapping-set Y -16 5 0 12
-262144 -1 -1 29;
#X obj 53 96 hradio 10 1 1 35 z-mapping z-mapping-set Z -16 5 0 12
-262144 -1 -1 30;
#X text 50 195 R G B mapping switches;
#N canvas 231 248 695 465 feature-names 0;
#X obj 222 320 r lb1;
#X obj 265 89 s y-feature-name;
#X obj 265 14 r y-mapping;
#X obj 75 89 s x-feature-name;
#X obj 75 14 r x-mapping;
#X obj 455 14 r z-mapping;
#X obj 455 89 s z-feature-name;
#X obj 75 239 s R-feature-name;
#X obj 265 239 s G-feature-name;
#X obj 455 239 s B-feature-name;
#X obj 455 164 r B-mapping;
#X obj 265 164 r G-mapping;
#X obj 75 164 r R-mapping;
#X obj 222 378 text define featureNames;
#X obj 455 57 text get featureNames;
#X obj 265 57 text get featureNames;
#X obj 75 57 text get featureNames;
#X obj 75 207 text get featureNames;
#X obj 265 207 text get featureNames;
#X obj 455 207 text get featureNames;
#X msg 222 342 read -c ./info/feature-names.txt;
#X connect 0 0 20 0;
#X connect 2 0 15 0;
#X connect 4 0 16 0;
#X connect 5 0 14 0;
#X connect 10 0 19 0;
#X connect 11 0 18 0;
#X connect 12 0 17 0;
#X connect 14 0 6 0;
#X connect 15 0 1 0;
#X connect 16 0 3 0;
#X connect 17 0 7 0;
#X connect 18 0 8 0;
#X connect 19 0 9 0;
#X connect 20 0 13 0;
#X restore 430 471 pd feature-names;
#X symbolatom 422 56 20 0 0 0 - x-feature-name -, f 20;
#X symbolatom 422 76 20 0 0 0 - y-feature-name -, f 20;
#X symbolatom 422 96 20 0 0 0 - z-feature-name -, f 20;
#X symbolatom 422 222 20 0 0 0 - R-feature-name -, f 20;
#X symbolatom 422 242 20 0 0 0 - G-feature-name -, f 20;
#X symbolatom 422 262 20 0 0 0 - B-feature-name -, f 20;
#N canvas 522 132 709 587 feature-parsing 0;
#X obj 351 362 pack f f f;
#X obj 351 384 s coord-RGB;
#N canvas 0 22 313 342 scale-z 0;
#X obj 36 30 inlet;
#X obj 68 175 / 2;
#X obj 54 87 t f f;
#X obj 36 138 *;
#X obj 36 203 -;
#X obj 36 252 -;
#X obj 54 66 r z-range;
#X obj 54 228 r z-offset;
#X obj 36 274 s coord-z;
#X connect 0 0 3 0;
#X connect 1 0 4 1;
#X connect 2 0 3 1;
#X connect 2 1 1 0;
#X connect 3 0 4 0;
#X connect 4 0 5 0;
#X connect 5 0 8 0;
#X connect 6 0 2 0;
#X connect 7 0 5 1;
#X restore 169 264 pd scale-z;
#N canvas 219 60 313 342 scale-x 0;
#X obj 36 30 inlet;
#X obj 68 175 / 2;
#X obj 54 87 t f f;
#X obj 36 138 *;
#X obj 36 203 -;
#X obj 36 252 -;
#X obj 36 274 s coord-x;
#X obj 54 228 r x-offset;
#X obj 54 66 r x-range;
#X connect 0 0 3 0;
#X connect 1 0 4 1;
#X connect 2 0 3 1;
#X connect 2 1 1 0;
#X connect 3 0 4 0;
#X connect 4 0 5 0;
#X connect 5 0 6 0;
#X connect 7 0 5 1;
#X connect 8 0 2 0;
#X restore 69 445 pd scale-x;
#N canvas 0 22 313 342 scale-y 0;
#X obj 36 30 inlet;
#X obj 54 66 r y-range;
#X obj 54 228 r y-offset;
#X obj 36 274 s coord-y;
#X obj 68 175 / 2;
#X obj 54 87 t f f;
#X obj 36 138 *;
#X obj 36 203 -;
#X obj 36 252 -;
#X connect 0 0 6 0;
#X connect 1 0 5 0;
#X connect 2 0 8 1;
#X connect 4 0 7 1;
#X connect 5 0 6 1;
#X connect 5 1 4 0;
#X connect 6 0 7 0;
#X connect 7 0 8 0;
#X connect 8 0 3 0;
#X restore 119 354 pd scale-y;
#X obj 25 94 t f f f;
#X obj 294 100 t f f f;
#X obj 25 23 r get-feature;
#X obj 25 67 t f f;
#X obj 119 334 text get dbNormText;
#X obj 169 244 text get dbNormText;
#X obj 69 424 text get dbNormText;
#X obj 351 322 text get dbNormText;
#X obj 401 242 text get dbNormText;
#X obj 451 162 text get dbNormText;
#X obj 546 544 s render-plot;
#X obj 218 194 r z-mapping;
#X obj 168 284 r y-mapping;
#X obj 118 374 r x-mapping;
#X obj 400 272 r R-mapping;
#X obj 450 192 r G-mapping;
#X obj 500 112 r B-mapping;
#X obj 118 396 t b f;
#X obj 168 306 t b f;
#X obj 218 216 t b f;
#X obj 400 294 t b f;
#X obj 500 134 t b f;
#X obj 450 214 t b f;
#X connect 0 0 1 0;
#X connect 5 0 11 0;
#X connect 5 1 9 0;
#X connect 5 2 10 0;
#X connect 6 0 12 0;
#X connect 6 1 13 0;
#X connect 6 2 14 0;
#X connect 7 0 8 0;
#X connect 8 0 5 0;
#X connect 8 1 6 0;
#X connect 9 0 4 0;
#X connect 10 0 2 0;
#X connect 11 0 3 0;
#X connect 12 0 0 0;
#X connect 13 0 0 1;
#X connect 14 0 0 2;
#X connect 16 0 24 0;
#X connect 17 0 23 0;
#X connect 18 0 22 0;
#X connect 19 0 25 0;
#X connect 20 0 27 0;
#X connect 21 0 26 0;
#X connect 22 0 15 0;
#X connect 22 1 11 1;
#X connect 23 0 15 0;
#X connect 23 1 9 1;
#X connect 24 0 15 0;
#X connect 24 1 10 1;
#X connect 25 0 15 0;
#X connect 25 1 12 1;
#X connect 26 0 15 0;
#X connect 26 1 14 1;
#X connect 27 0 15 0;
#X connect 27 1 13 1;
#X restore 430 451 pd feature-parsing;
#X obj 4 4 cnv 10 400 10 empty empty empty 20 12 0 14 -233017 -66577
0;
#X obj 4 4 cnv 10 10 400 empty empty empty 20 12 0 14 -233017 -66577
0;
#X obj 422 126 bng 15 250 50 0 reset-axes empty Reset 17 7 0 12 -204786
-1 -1;
#X obj 193 126 tgl 15 0 mouseover-on mouseover-on-set Mouseover 17
7 0 12 -262144 -1 -1 0 1;
#X obj 53 126 tgl 15 0 render-on render-on-set GEM-render 17 7 0 12
-262144 -1 -1 0 1;
#X text 51 356 0: sample number;
#X text 51 376 1: frame number;
#X text 51 396 2: bark brightness;
#X text 51 416 3: bark centroid;
#X text 51 436 4: bark flatness;
#X text 51 456 5: bark flux;
#X text 51 476 6: bark irregularity;
#X text 51 496 7: bark kurtosis;
#X text 51 316 Feature attribute index:;
#X text 51 516 8: bark rolloff;
#X text 51 536 9: bark skewness;
#X text 51 556 10: bark spectrum slope;
#X text 51 576 11: bark spread;
#X text 51 596 12: brightness;
#X text 51 616 13: centroid;
#X text 51 636 14: flatness;
#X text 261 356 15: flux;
#X text 261 376 16: harmonicity;
#X text 261 396 17: inharmonicity;
#X text 261 416 18: irregularity;
#X text 261 436 19: kurtosis;
#X text 261 456 20: rolloff;
#X text 261 476 21: skewness;
#X text 261 496 22: slope;
#X text 261 516 23: spread;
#X text 261 536 24: wave slope;
#X text 261 556 25: zero crossing;
#X text 261 576 26: pitch;
#X text 261 596 27: amplitude;
#X text 261 616 28-76: BFCCs 1-49 (we dropped BFCC 0);
#X obj 313 126 bng 15 250 50 0 render-plot render-plot-set Plot 17
7 0 12 -204800 -1 -1;
#X obj 422 146 bng 15 250 50 0 save-plot empty Save-plot 17 7 0 12
-258113 -1 -1;
#X coords 0 -1 1 1 525 150 1 30 20;
#X restore 38 76 pd set-dimensions;
#X obj 3 4 cnv 10 400 10 empty empty empty 20 12 0 14 -233017 -66577
0;
#X obj 3 4 cnv 10 10 400 empty empty empty 20 12 0 14 -233017 -66577
0;
#X floatatom 357 347 5 0 0 1 offset-x zoom-control-x-offset-set zoom-control-x-offset
, f 5;
#X floatatom 357 367 5 0 0 1 offset-y zoom-control-y-offset-set zoom-control-y-offset
, f 5;
#X floatatom 248 347 5 0 0 1 zoom-x zoom-control-x-range-set zoom-control-x-range
, f 5;
#X floatatom 248 367 5 0 0 1 zoom-y zoom-control-y-range-set zoom-control-y-range
, f 5;
#N canvas 939 34 574 590 init 0;
#X obj 43 34 loadbang;
#X msg 43 344 \; pd dsp 1 \;;
#X obj 244 115 s lb1;
#X obj 226 141 s lb2;
#X obj 208 170 s lb3;
#X obj 43 55 t b b b b b b;
#X obj 188 200 s lb4;
#X obj 168 230 s lb5;
#X obj 283 251 r lb5;
#X obj 43 411 declare -path ./lib -path ../lib;
#X msg 283 280 \; x-mapping-set 28 \; y-mapping-set 29 \; z-mapping-set
30 \; R-mapping-set 28 \; G-mapping-set 29 \; B-mapping-set 30 \; gem-x-range
14.2222 \; gem-y-range 8 \; ortho-switch-set 1 \; render-snapshot-set
1 \; render-light-set 1 \; render-points 0 \; reset-axes bang \; mouse-radius-set
0.25 \; full-sample-mode-set 0 \; full-sample-fade-time-set 20 \; master-volume-set
90 \;;
#X connect 0 0 5 0;
#X connect 5 0 1 0;
#X connect 5 1 7 0;
#X connect 5 2 6 0;
#X connect 5 3 4 0;
#X connect 5 4 3 0;
#X connect 5 5 2 0;
#X connect 8 0 10 0;
#X restore 588 76 pd init;
#X obj 38 36 cnv 15 256 30 empty empty empty 20 12 0 14 -261234 -66577
0;
#N canvas 311 126 773 683 analysis 0;
#X obj 31 118 s window-size;
#X msg 111 77 4096;
#X msg 31 77 1024;
#X msg 71 77 2048;
#X msg 155 77 8192;
#X obj 31 614 cnv 15 1 1 empty empty 5) 0 0 0 28 -233017 -66577 0;
#X obj 31 44 cnv 15 1 1 empty empty 1) 0 0 0 28 -233017 -66577 0;
#X obj 31 264 cnv 15 1 1 empty empty 3) 0 0 0 28 -233017 -66577 0;
#X obj 31 494 cnv 15 1 1 empty empty 4) 0 0 0 28 -233017 -66577 0;
#X text 72 29 Set a grain size in samples;
#X obj 511 219 s db-thresh;
#X msg 591 177 70;
#X msg 511 177 0;
#X msg 551 177 40;
#X obj 31 184 cnv 15 1 1 empty empty 2) 0 0 0 28 -233017 -66577 0;
#X obj 51 401 s filenames-list;
#X obj 103 538 s do-analysis;
#X obj 444 507 r analysis-finished;
#X obj 444 533 bng 15 250 50 0 empty empty empty 17 7 0 10 -262144
-1 -1;
#X obj 554 389 bng 15 250 50 0 empty empty empty 17 7 0 10 -262144
-1 -1;
#X text 521 338 Wait until file loading is complete;
#X obj 554 363 r file-loading-finished;
#X obj 344 97 tgl 15 0 full-sample-mode full-sample-mode-set full-sample-mode
17 7 0 10 -262144 -1 -1 0 1;
#X text 72 46 (does not need to be a power of 2);
#X text 342 29 OR: turn on full sample mode to analyze and play back
entire samples. This is only appropriate when loading more than 1 audio
file and may cause the analysis step to take a long time (depending
on the length of your files).;
#X text 71 478 Analyze. This may choke Pd for a while \, so wait until
a bang shows up at "analysis-finished", f 49;
#X obj 103 518 bng 15 250 50 0 empty empty empty 17 7 0 10 -262144
-1 -1;
#X text 80 166 Choose a threshold in dB. Grains below this threshold
won't be included in the plot \, which is good when you don't want
to bother plotting gaps of silence. NOTE: this threshold does not apply
when using full sample mode.;
#X obj 574 405 print -n;
#X msg 574 385 file loading finished;
#X obj 464 549 print -n;
#X msg 464 529 analysis finished;
#X text 70 595 Go back to the parent patch \, turn on GEM rendering
\, and pick different features for the axes as desired.;
#X floatatom 495 97 10 0 0 1 full-sample-fade-time-(ms) full-sample-fade-time-set
full-sample-fade-time, f 10;
#X obj 89 265 bng 15 250 50 0 empty empty empty 17 7 0 10 -262144 -1
-1;
#N canvas 150 474 542 479 choose-single-file 0;
#X obj 48 20 inlet;
#X obj 48 82 openpanel;
#X msg 173 114 clear;
#X obj 173 220 text define single-soundfile-filename;
#X obj 82 296 text set single-soundfile-filename;
#X msg 143 262 0;
#X msg 203 184 write -c ./filename-lists/single-soundfile.txt;
#X obj 48 400 s filenames-list;
#X msg 48 366 ../filename-lists/single-soundfile.txt;
#X obj 48 114 t b b a b;
#X obj 48 42 t b b;
#X text 158 21 To be consistent with the way that audio files are loaded
in the audio patch (regardless of whether it's a single sample or multiple
samples) we must create a single-line text file that specifies the
path of the single soundfile chosen via [openpanel] here.;
#X connect 0 0 10 0;
#X connect 1 0 9 0;
#X connect 2 0 3 0;
#X connect 5 0 4 1;
#X connect 6 0 3 0;
#X connect 8 0 7 0;
#X connect 9 0 8 0;
#X connect 9 1 6 0;
#X connect 9 2 4 0;
#X connect 9 3 5 0;
#X connect 10 0 1 0;
#X connect 10 1 2 0;
#X restore 89 285 pd choose-single-file;
#X text 127 263 << Choose a single audio file here;
#X msg 51 337 filenames-perc.txt;
#X msg 71 367 filenames-oboe.txt;
#X text 228 328 OR: provide the name of a text file in 09-timbre-space/filename-lists
containing names of all audio files you want to analyze. The audio
files listed in the text file must have paths relative to the 09-timbre-space/lib/
directory., f 36;
#X connect 1 0 0 0;
#X connect 2 0 0 0;
#X connect 3 0 0 0;
#X connect 4 0 0 0;
#X connect 11 0 10 0;
#X connect 12 0 10 0;
#X connect 13 0 10 0;
#X connect 17 0 18 0;
#X connect 17 0 31 0;
#X connect 21 0 19 0;
#X connect 21 0 29 0;
#X connect 26 0 16 0;
#X connect 29 0 28 0;
#X connect 31 0 30 0;
#X connect 34 0 35 0;
#X connect 37 0 15 0;
#X connect 38 0 15 0;
#X restore 49 43 pd analysis;
#N canvas 26 546 814 599 grain-info-display 0;
#X floatatom 14 85 10 0 0 3 start grain-info-seconds-start-set -,
f 10;
#X floatatom 114 85 10 0 0 3 end grain-info-seconds-end-set -, f 10
;
#X text 11 66 Location (seconds);
#X floatatom 204 85 10 0 0 2 sample-number grain-info-sample-number-set
-, f 10;
#X floatatom 304 85 10 0 0 2 frame-number grain-info-frame-number-set
-, f 10;
#N canvas 403 101 522 457 display-bfccs 0;
#N canvas 0 22 450 278 (subpatch) 0;
#X array bfcc-display 49 float 0;
#X coords 0 1 48 -1 200 140 1 0 0;
#X restore 219 226 graph;
#X obj 47 164 list prepend 0;
#X obj 47 186 s bfcc-display;
#X obj 47 20 r trig-sound;
#X obj 47 62 t f b b;
#X obj 47 127 text get dbText;
#X msg 84 102 28;
#X msg 124 102 49;
#X connect 1 0 2 0;
#X connect 3 0 4 0;
#X connect 4 0 5 0;
#X connect 4 1 6 0;
#X connect 4 2 7 0;
#X connect 5 0 1 0;
#X connect 6 0 5 1;
#X connect 7 0 5 2;
#X coords 0 -1 1 1 240 185 2 200 200;
#X restore 14 385 pd display-bfccs;
#N canvas 324 380 961 621 filename-display 0;
#X msg 54 315 \; grain-info-file-name-canvas-label label \$1 \;;
#X obj 442 143 list fromsymbol;
#X obj 442 99 r grain-info-file-name-set;
#X obj 442 121 symbol;
#X obj 54 293 list tosymbol;
#X obj 583 220 list length;
#X msg 615 424 symbol /;
#X obj 615 446 list fromsymbol;
#X obj 565 288 list prepend 0;
#X obj 565 310 s filename-ascii;
#X obj 649 181 table filename-ascii;
#X msg 583 242 \; filename-ascii resize \$1 \;;
#X obj 54 273 list split;
#X obj 428 221 f;
#X obj 428 263 until;
#X obj 428 315 f;
#X obj 458 317 - 1;
#X obj 447 289 - 1;
#X obj 428 359 tabread filename-ascii;
#X obj 428 381 ==;
#X obj 428 403 select 1;
#X obj 428 455 f;
#X obj 428 425 t b b;
#X obj 428 477 + 1;
#X obj 442 168 t l b l l b;
#X obj 428 337 t f f;
#X text 505 490 Should probably do this just once in the audio patch
to extract all filenames at file loading time;
#X connect 1 0 24 0;
#X connect 2 0 3 0;
#X connect 3 0 1 0;
#X connect 4 0 0 0;
#X connect 5 0 11 0;
#X connect 5 0 13 1;
#X connect 5 0 17 0;
#X connect 6 0 7 0;
#X connect 7 0 19 1;
#X connect 8 0 9 0;
#X connect 12 1 4 0;
#X connect 13 0 14 0;
#X connect 14 0 15 0;
#X connect 15 0 16 0;
#X connect 15 0 25 0;
#X connect 16 0 15 1;
#X connect 17 0 15 1;
#X connect 18 0 19 0;
#X connect 19 0 20 0;
#X connect 20 0 22 0;
#X connect 21 0 23 0;
#X connect 22 0 21 0;
#X connect 22 1 14 1;
#X connect 23 0 12 1;
#X connect 24 0 12 0;
#X connect 24 1 13 0;
#X connect 24 2 8 0;
#X connect 24 3 5 0;
#X connect 24 4 6 0;
#X connect 25 0 18 0;
#X connect 25 1 21 1;
#X coords 0 621 1 620 300 60 0;
#X restore 310 553 pd filename-display;
#X obj 14 21 cnv 15 100 15 empty grain-info-file-name-canvas-label
perc-62.wav 20 12 0 14 -262144 -66577 0;
#X obj 14 135 grain-info B-brightness 2;
#X obj 124 135 grain-info B-centroid 3;
#X obj 234 135 grain-info B-flatness 4;
#X obj 344 135 grain-info B-flux 5;
#X obj 454 135 grain-info B-irreg 6;
#X obj 564 135 grain-info B-kurtosis 7;
#X obj 674 135 grain-info B-rolloff 8;
#X obj 14 195 grain-info B-skewness 9;
#X obj 124 195 grain-info B-slope 10;
#X obj 234 195 grain-info B-spread 11;
#X obj 344 195 grain-info brightness 12;
#X obj 454 195 grain-info centroid 13;
#X obj 564 195 grain-info flatness 14;
#X obj 674 195 grain-info flux 15;
#X obj 14 255 grain-info harmonicity 16;
#X obj 124 255 grain-info inharmonicity 17;
#X obj 234 255 grain-info irregularity 18;
#X obj 344 255 grain-info kurtosis 19;
#X obj 454 255 grain-info rolloff 20;
#X obj 564 255 grain-info skewness 21;
#X obj 674 255 grain-info slope 22;
#X obj 14 315 grain-info spread 23;
#X obj 124 315 grain-info waveslope 24;
#X obj 234 315 grain-info zerocrossing 25;
#X obj 344 315 grain-info pitch 26;
#X obj 454 315 grain-info amplitude 27;
#X restore 496 367 pd grain-info-display;
#X text 36 407 timbreID - William Brent 2017;
#X text 489 323 Open this sub-patch for grain info on mouseover, f
25;
#N canvas 392 124 890 522 audio 0;
#X msg 253 136 pd~ stop;
#X msg 203 76 pd~ start -nogui ./lib/audio-patch.pd;
#X msg 223 106 pd~ start ./lib/audio-patch.pd;
#N canvas 881 335 419 478 subprocess-sends 0;
#X obj 80 352 outlet;
#X obj 80 160 subprocess-send do-analysis;
#X obj 80 100 subprocess-send window-size;
#X obj 80 120 subprocess-send db-thresh;
#X obj 80 140 subprocess-send filenames-list;
#X obj 80 180 subprocess-send trig-sound;
#X obj 80 200 subprocess-send full-sample-mode;
#X obj 80 220 subprocess-send full-sample-fade-time;
#X connect 1 0 0 0;
#X connect 2 0 0 0;
#X connect 3 0 0 0;
#X connect 4 0 0 0;
#X connect 5 0 0 0;
#X connect 6 0 0 0;
#X connect 7 0 0 0;
#X restore 311 231 pd subprocess-sends;
#X obj 368 410 dac~;
#X obj 368 380 *~;
#X obj 430 282 r master-volume;
#X obj 430 304 moses 41;
#X obj 430 326 t b;
#X msg 430 348 0;
#X obj 430 370 dbtorms;
#X obj 430 392 pack f 40;
#X obj 430 414 line~;
#X obj 203 336 t a a;
#X obj 203 457 s;
#X obj 230 361 list split 1;
#X obj 230 386 symbol;
#X obj 203 412 list split 1;
#X obj 203 437 list trim;
#X obj 203 305 pd~ -noutsig 1 -fifo 1, f 28;
#X text 478 35 As of examples package 0.7.1 \, the timbre space browser
example uses [pd~] to manage audio on a separate thread from the GEM
process. This is so that video processing does not cause audio dropouts.
By default \, the audio thread is started with the -nogui option to
keep things uncluttered. If you want to see what's going on in the
audio patch \, disconnect [r lb1] from the message with -nogui and
connect it to the other "start" message. Then save it and reload this
patch. You'll see the 2nd instance of Pd pop up \, and the audio patch
along with it. Functionality is the same in either case.;
#X msg 31 192 \; db-thresh 0 \; full-sample-mode 0 \;;
#X obj 31 169 r audio-process-loadbang;
#X obj 203 21 r lb1;
#X connect 0 0 19 0;
#X connect 1 0 19 0;
#X connect 2 0 19 0;
#X connect 3 0 19 0;
#X connect 5 0 4 0;
#X connect 5 0 4 1;
#X connect 6 0 7 0;
#X connect 7 0 8 0;
#X connect 7 1 10 0;
#X connect 8 0 9 0;
#X connect 9 0 10 0;
#X connect 10 0 11 0;
#X connect 11 0 12 0;
#X connect 12 0 5 1;
#X connect 13 0 17 0;
#X connect 13 1 15 0;
#X connect 15 0 16 0;
#X connect 16 0 14 1;
#X connect 17 1 18 0;
#X connect 18 0 14 0;
#X connect 19 0 13 0;
#X connect 19 1 5 0;
#X connect 22 0 21 0;
#X connect 23 0 1 0;
#X restore 588 116 pd audio;
#N canvas 273 531 637 202 db-text 0;
#X msg 40 73 read -c ./database/timbre-space-db.txt;
#X obj 40 115 text define dbText;
#X msg 320 73 read -c ./database/timbre-space-norm-db.txt;
#X obj 320 115 text define dbNormText;
#X obj 40 16 r analysis-finished;
#X obj 320 16 r analysis-finished;
#X connect 0 0 1 0;
#X connect 2 0 3 0;
#X connect 4 0 0 0;
#X connect 5 0 2 0;
#X restore 588 96 pd db-text;
#N canvas 1329 465 507 474 rotate-3D-space 0;
#X obj 43 94 tgl 15 0 render-points render-points-set Points 17 7 0
10 -262144 -1 -1 0 1;
#X obj 43 64 tgl 15 0 render-light render-light-set Light 17 7 0 10
-262144 -1 -1 1 1;
#X obj 43 124 tgl 15 0 render-snapshot render-snapshot-set Snapshot
17 7 0 10 -262144 -1 -1 1 1;
#X obj 171 71 hsl 128 15 0 360 0 0 rotate-x empty Rotate-X -2 -8 0
12 -262144 -1 -1 0 1;
#X obj 171 111 hsl 128 15 0 360 0 0 rotate-y empty Rotate-Y -2 -8 0
12 -262144 -1 -1 0 1;
#X obj 171 151 hsl 128 15 0 360 0 0 rotate-z empty Rotate-Z -2 -8 0
12 -262144 -1 -1 0 1;
#X text 43 384 Note: mouse-overs won't work properly on a rotated space.
;
#X text 43 243 This is here to allow rotation of the space \, but it's
disabled by default since rendering hundreds of points takes up too
much CPU. Instead \, the patch automatically takes a snapshot of the
points \, stops rendering them \, then displays the static snapshot.
So rotations won't be visible in snapshot mode.;
#X text 43 333 To rotate along X \, Y \, or Z \, uncheck the Snapshot
toggle and check the Light & Points toggles. Then play around with
the sliders.;
#X obj 168 23 tgl 15 0 ortho-switch ortho-switch-set Orthographic 17
7 0 12 -262144 -1 -1 1 1;
#X floatatom 168 201 5 0 0 1 offset-z zoom-control-z-offset-set zoom-control-z-offset
, f 5;
#X floatatom 168 181 5 0 0 1 zoom-z zoom-control-z-range-set zoom-control-z-range
, f 5;
#X restore 38 372 pd rotate-3D-space;
#X obj 588 156 cpumeter;
#X text 134 43 <<<< START HERE;
