#N canvas 118 112 259 306 10;
#X obj 59 18 r trig-sound;
#X floatatom 59 224 10 0 0 2 #1 - -, f 10;
#X obj 96 106 f \$2;
#X obj 59 70 t f b;
#X obj 59 134 text get dbText;
#X connect 0 0 3 0;
#X connect 2 0 4 1;
#X connect 3 0 4 0;
#X connect 3 1 2 0;
#X connect 4 0 1 0;
#X coords 0 -1 1 1 100 50 2 50 200;
