#N canvas 248 367 960 436 10;
#N canvas 0 22 450 278 (subpatch) 0;
#X array array1 10 float 3;
#A 0 5.78571 1.67139 9 3.47141 1.1571 4.94999 9 9 9 9;
#X coords 0 9 10 0 200 140 1 0 0;
#X restore 449 77 graph;
#X msg 70 91 mode;
#X obj 115 251 tabletool array1;
#X floatatom 115 272 5 0 0 0 - - -, f 5;
#X floatatom 219 290 5 0 0 0 - - -, f 5;
#X msg 144 184 const 9 6 9;
#X msg 193 55 \; array1 2 9;
#X connect 1 0 2 0;
#X connect 2 0 3 0;
#X connect 2 1 4 0;
#X connect 5 0 2 0;
