#N canvas 167 216 817 554 10;
#X msg 70 19 open ../audio/keymusic.wav \, start;
#X obj 70 151 magSpec~ 4096;
#X obj 478 33 table \$0-avg-spec 2049;
#X obj 70 50 adc~;
#X obj 150 114 metro 100;
#X floatatom 440 105 5 0 0 0 - - -, f 5;
#X obj 440 125 pack f \$0;
#X msg 440 146 \; \$2-avg-spec bounds 0 \$1 2048 0 \;;
#X obj 237 112 f \$0;
#X obj 150 48 tgl 15 0 empty empty empty 17 7 0 10 -262144 -1 -1 0
1;
#X obj 478 13 table \$0-avg-spec-tmp 2049;
#X msg 237 133 \; \$1-avg-spec-tmp const 0 \; \$1-avg-spec const 0
\;;
#X obj 242 333 list prepend 0;
#X obj 242 354 s \$0-avg-spec;
#X obj 70 294 tabletool \$0-avg-spec-tmp;
#X msg 70 272 add \$1-avg-spec;
#N canvas 543 85 258 235 once 0;
#X obj 48 32 inlet;
#X obj 48 93 spigot 1;
#X obj 48 114 t l b;
#X obj 48 165 outlet;
#X msg 108 66 0;
#X msg 148 66 1;
#X obj 148 32 inlet;
#X connect 0 0 1 0;
#X connect 1 0 2 0;
#X connect 2 0 3 0;
#X connect 2 1 4 0;
#X connect 4 0 1 1;
#X connect 5 0 1 1;
#X connect 6 0 5 0;
#X restore 645 77 pd once;
#X obj 70 212 t b l;
#X obj 70 233 f \$0;
#X obj 190 248 list prepend 0;
#X obj 190 269 s \$0-avg-spec-tmp;
#X obj 40 246 bng 15 250 50 0 empty empty empty 17 7 0 10 -262144 -1
-1;
#X obj 150 74 t f f;
#X obj 237 92 select 1;
#X connect 0 0 3 0;
#X connect 1 0 17 0;
#X connect 3 0 1 0;
#X connect 4 0 1 0;
#X connect 5 0 6 0;
#X connect 6 0 7 0;
#X connect 8 0 11 0;
#X connect 9 0 22 0;
#X connect 12 0 13 0;
#X connect 14 1 12 0;
#X connect 15 0 14 0;
#X connect 17 0 18 0;
#X connect 17 1 19 0;
#X connect 18 0 15 0;
#X connect 19 0 20 0;
#X connect 21 0 18 0;
#X connect 22 0 4 0;
#X connect 22 1 23 0;
#X connect 23 0 8 0;
