#N canvas 228 84 854 645 10;
#X declare -path ./lib;
#X obj 63 293 magSpec~ 4096;
#X obj 471 175 table \$0-avg-spec 2049;
#X obj 143 256 metro 100;
#X floatatom 433 247 5 0 0 0 - - -, f 5;
#X obj 433 267 pack f \$0;
#X msg 433 288 \; \$2-avg-spec bounds 0 \$1 2048 0 \;;
#X obj 244 288 f \$0;
#X obj 143 190 tgl 15 0 empty empty empty 17 7 0 10 -262144 -1 -1 0
1;
#X obj 471 155 table \$0-avg-spec-tmp 2049;
#X obj 235 475 list prepend 0;
#X obj 235 496 s \$0-avg-spec;
#X obj 63 436 tabletool \$0-avg-spec-tmp;
#X msg 63 414 add \$1-avg-spec;
#X obj 63 354 t b l;
#X obj 63 375 f \$0;
#X obj 183 390 list prepend 0;
#X obj 183 411 s \$0-avg-spec-tmp;
#X obj 33 388 bng 15 250 50 0 empty empty empty 17 7 0 10 -262144 -1
-1;
#X obj 143 216 t f f;
#X obj 230 234 select 1;
#N canvas 244 32 842 553 find-chroma-regions 0;
#X msg 53 34 12;
#X obj 53 55 t f b;
#X obj 53 76 until;
#X obj 53 137 f;
#X obj 83 138 + 1;
#X msg 72 106 21;
#X text 119 105 start at lowest note of piano: A \, MIDI 21;
#X obj 131 56 s \$0-clear-all-energy-tables;
#X obj 53 333 - 0.5;
#X obj 223 333 + 0.5;
#X text 273 332 allow for +/- a half semitone tuning;
#X obj 53 354 mtof;
#X obj 223 354 mtof;
#X obj 53 375 freq2bin 4096 44100;
#X obj 223 375 freq2bin 4096 44100;
#X obj 53 179 until;
#X obj 53 230 f;
#X obj 83 230 + 12;
#X obj 193 215 select 1;
#X obj 53 251 t f f f;
#X obj 169 318 / 12;
#X obj 169 339 i;
#X obj 169 288 -;
#X obj 53 426 pack f f f f \$0;
#X msg 53 447 \; \$5-\$3-lower-bin-bounds \$4 \$1 \; \$5-\$3-upper-bin-bounds
\$4 \$2 \;;
#X text 257 418 \$1: lower bin bound \; \$2: upper bin bound \; \$3:
pitch class lowest note \; \$4: octave number \; \$5: dollar-zero \;
;
#X obj 53 158 t b f, f 14;
#X obj 53 5 inlet;
#X obj 578 141 chroma-table-abs 21 \$0;
#X obj 193 194 > 104;
#X text 260 191 keep adding octaves until you reach the top of the
piano: G# \, MIDI 104, f 36;
#X obj 578 381 chroma-table-abs 32 \$0;
#X obj 578 161 chroma-table-abs 22 \$0;
#X obj 578 181 chroma-table-abs 23 \$0;
#X obj 578 201 chroma-table-abs 24 \$0;
#X obj 578 231 chroma-table-abs 25 \$0;
#X obj 578 251 chroma-table-abs 26 \$0;
#X obj 578 271 chroma-table-abs 27 \$0;
#X obj 578 291 chroma-table-abs 28 \$0;
#X obj 578 321 chroma-table-abs 29 \$0;
#X obj 578 341 chroma-table-abs 30 \$0;
#X obj 578 361 chroma-table-abs 31 \$0;
#X connect 0 0 1 0;
#X connect 1 0 2 0;
#X connect 1 1 5 0;
#X connect 1 1 7 0;
#X connect 2 0 3 0;
#X connect 3 0 4 0;
#X connect 3 0 26 0;
#X connect 4 0 3 1;
#X connect 5 0 3 1;
#X connect 8 0 11 0;
#X connect 9 0 12 0;
#X connect 11 0 13 0;
#X connect 12 0 14 0;
#X connect 13 0 23 0;
#X connect 14 0 23 1;
#X connect 15 0 16 0;
#X connect 16 0 17 0;
#X connect 16 0 19 0;
#X connect 17 0 16 1;
#X connect 17 0 29 0;
#X connect 18 0 15 1;
#X connect 19 0 8 0;
#X connect 19 1 9 0;
#X connect 19 2 22 0;
#X connect 20 0 21 0;
#X connect 21 0 23 3;
#X connect 22 0 20 0;
#X connect 23 0 24 0;
#X connect 26 0 15 0;
#X connect 26 1 16 1;
#X connect 26 1 23 2;
#X connect 26 1 22 1;
#X connect 27 0 0 0;
#X connect 29 0 18 0;
#X restore 427 431 pd find-chroma-regions;
#X msg 244 309 \; \$1-avg-spec-tmp const 0 \; \$1-avg-spec const 0
\; \$1-window-size 4096 \;;
#N canvas 108 139 888 769 sum-chroma-energy 0;
#X msg 64 62 12;
#X obj 64 83 t f b;
#X obj 64 104 until;
#X obj 64 165 f;
#X obj 94 166 + 1;
#X msg 83 134 21;
#X text 130 133 start at lowest note of piano: A \, MIDI 21;
#X obj 64 33 inlet;
#X obj 241 330 pack f \$0;
#X obj 108 227 until;
#X obj 108 278 f;
#X msg 125 254 0;
#X obj 138 278 + 1;
#X obj 76 425 tabread \$0-21-lower-bin-bounds;
#X msg 102 394 set \$2-\$1-lower-bin-bounds;
#X obj 108 299 t f f f f f;
#X obj 285 425 tabread \$0-21-upper-bin-bounds;
#X msg 311 394 set \$2-\$1-upper-bin-bounds;
#X obj 224 480 swap;
#X obj 224 501 -;
#X obj 224 522 + 1;
#X msg 377 494 set \$2-\$1-total-energy;
#X obj 76 552 array sum \$0-avg-spec;
#X obj 213 603 tabwrite \$0-21-total-energy;
#X text 171 263 octave number;
#X obj 64 186 t b b b f f b;
#X msg 103 207 8;
#X obj 76 446 t f f f;
#X obj 129 476 > -1;
#X obj 76 507 spigot;
#X obj 31 634 array sum \$0-21-total-energy;
#X msg 213 639 symbol \$2-\$1-total-energy;
#X obj 614 270 table test 10;
#X msg 615 136 randFill 0 100;
#X obj 615 157 tabletool test;
#X obj 597 384 array sum test;
#X floatatom 597 405 5 0 0 0 - - -, f 5;
#X obj 571 322 bng 15 250 50 0 empty empty empty 17 7 0 10 -262144
-1 -1;
#X floatatom 615 332 5 0 0 0 - - -, f 5;
#X floatatom 702 335 5 0 0 0 - - -, f 5;
#X obj 261 203 - 21;
#X obj 137 577 /;
#X text 168 575 average based on the number of bins;
#X obj 31 695 tabwrite \$0-chroma-energy-sums;
#X connect 0 0 1 0;
#X connect 1 0 2 0;
#X connect 1 1 5 0;
#X connect 2 0 3 0;
#X connect 3 0 4 0;
#X connect 3 0 25 0;
#X connect 4 0 3 1;
#X connect 5 0 3 1;
#X connect 7 0 0 0;
#X connect 8 0 21 0;
#X connect 8 0 14 0;
#X connect 8 0 17 0;
#X connect 8 0 31 0;
#X connect 9 0 10 0;
#X connect 10 0 12 0;
#X connect 10 0 15 0;
#X connect 11 0 10 1;
#X connect 12 0 10 1;
#X connect 13 0 27 0;
#X connect 14 0 13 0;
#X connect 15 0 13 0;
#X connect 15 1 16 0;
#X connect 15 4 23 1;
#X connect 16 0 18 1;
#X connect 17 0 16 0;
#X connect 18 0 19 0;
#X connect 18 1 19 1;
#X connect 19 0 20 0;
#X connect 20 0 22 1;
#X connect 20 0 41 1;
#X connect 21 0 23 0;
#X connect 22 0 41 0;
#X connect 25 0 30 0;
#X connect 25 2 26 0;
#X connect 25 4 8 0;
#X connect 25 4 40 0;
#X connect 25 5 11 0;
#X connect 26 0 9 0;
#X connect 27 0 29 0;
#X connect 27 1 18 0;
#X connect 27 2 28 0;
#X connect 28 0 29 1;
#X connect 29 0 22 0;
#X connect 30 0 43 0;
#X connect 31 0 30 2;
#X connect 33 0 34 0;
#X connect 35 0 36 0;
#X connect 37 0 35 0;
#X connect 38 0 35 0;
#X connect 39 0 35 1;
#X connect 40 0 43 1;
#X connect 41 0 23 0;
#X restore 427 451 pd sum-chroma-energy;
#X obj 407 431 bng 15 250 50 0 empty empty empty 17 7 0 10 -262144
-1 -1;
#X obj 407 451 bng 15 250 50 0 empty empty empty 17 7 0 10 -262144
-1 -1;
#X floatatom 569 344 5 0 0 0 - - -, f 5;
#X obj 569 364 pack f \$0;
#N canvas 107 113 450 300 init 0;
#X obj 69 31 loadbang;
#X obj 69 52 t b b b b;
#X obj 69 173 s lb4;
#X obj 159 113 s lb1;
#X obj 129 133 s lb2;
#X obj 99 153 s lb3;
#X obj 269 92 declare -path ./lib;
#X connect 0 0 1 0;
#X connect 1 0 2 0;
#X connect 1 1 5 0;
#X connect 1 2 4 0;
#X connect 1 3 3 0;
#X restore 621 103 pd init;
#X obj 63 213 readsf~;
#X obj 9 257 dac~;
#X msg 84 185 stop;
#N canvas 0 22 450 278 (subpatch) 0;
#X array \$0-chroma-energy-sums 12 float 2;
#X coords 0 12 12 0 200 140 1 0 0;
#X restore 595 454 graph;
#X msg 569 385 \; \$2-chroma-energy-sums bounds 0 \$1 12 0 \;;
#X obj 39 8 bng 15 250 50 0 empty empty empty 17 7 0 10 -262144 -1
-1;
#X obj 39 28 openpanel;
#X msg 39 72 open /Users/williambrent/Desktop/Systematic_Scale-C-Major_Meinard_middle.wav
;
#X msg 39 49 set open \$1;
#X msg 73 160 start;
#X obj 230 255 t b b;
#X connect 0 0 13 0;
#X connect 2 0 0 0;
#X connect 3 0 4 0;
#X connect 4 0 5 0;
#X connect 6 0 21 0;
#X connect 7 0 18 0;
#X connect 9 0 10 0;
#X connect 11 1 9 0;
#X connect 12 0 11 0;
#X connect 13 0 14 0;
#X connect 13 1 15 0;
#X connect 14 0 12 0;
#X connect 15 0 16 0;
#X connect 17 0 14 0;
#X connect 18 0 2 0;
#X connect 18 1 19 0;
#X connect 19 0 6 0;
#X connect 19 0 38 0;
#X connect 23 0 20 0;
#X connect 24 0 22 0;
#X connect 25 0 26 0;
#X connect 26 0 32 0;
#X connect 28 0 0 0;
#X connect 28 0 29 0;
#X connect 28 0 29 1;
#X connect 28 1 7 0;
#X connect 30 0 28 0;
#X connect 33 0 34 0;
#X connect 34 0 36 0;
#X connect 35 0 28 0;
#X connect 36 0 35 0;
#X connect 37 0 28 0;
#X connect 38 0 37 0;
#X connect 38 1 35 0;
