#N canvas 230 227 931 504 10;
#X declare -path ./lib -path ../lib;
#N canvas 0 22 450 300 (subpatch) 0;
#X array barkSpec-graph 24 float 0;
#X coords 0 100 23 0 200 140 1 0 0;
#X restore 693 281 graph;
#N canvas 416 101 391 257 osc-bank 0;
#X obj 43 40 catch~ sum;
#X obj 62 76 env~;
#X floatatom 62 97 5 0 0 0 - - -, f 5;
#X obj 166 94 clone -s 1 vocode-voice 24;
#X obj 43 146 outlet~;
#X connect 0 0 1 0;
#X connect 0 0 4 0;
#X connect 1 0 2 0;
#X restore 254 103 pd osc-bank;
#X obj 257 223 hsl 128 15 200 1 0 0 refresh-rate refresh-rate-set refresh-rate
8 8 0 12 -262144 -1 -1 12509 1;
#N canvas 558 80 718 589 loudness-curve 0;
#N canvas 0 22 450 300 (subpatch) 0;
#X array loudness-curve 24 float 2;
#X coords 0 100 24 0 600 420 1 0 0;
#X restore 33 34 graph;
#X text 30 463 Set the relative levels (dB) of all bands in the oscillator
bank. Be careful to do this with the volume low to avoid sudden blasts
of loudness.;
#X restore 36 392 pd loudness-curve;
#X floatatom 392 336 5 1 108 1 MIDI fund -, f 5;
#X floatatom 254 366 5 0 1000 1 portamento portamento-set portamento
, f 5;
#X floatatom 254 384 5 0 1000 1 amp-smoothing amp-smoothing-set amp-smoothing
, f 5;
#N canvas 260 83 611 491 init 0;
#X obj 35 28 loadbang;
#X msg 35 285 \; syllable-durations read ./data/syllable-durations.txt
\; scale read ./data/scale.txt \; loudness-curve read ./data/loudness.txt
\; loudness-curve ylabel -0.7 10 20 30 40 50 60 70 80 90 100 \;;
#X obj 35 403 declare -path ./lib -path ../lib;
#X msg 161 83 \; bs normalize 0 \; thresh-set 0.2 \; refresh-rate-set
4 \; refresh-set 1 \; portamento-set 30 \; amp-smoothing-set 12 \;
fund-set 50 \; master-volume-set 85 \; pd dsp 1 \;;
#X connect 0 0 3 0;
#X connect 0 0 1 0;
#X restore 36 372 pd init;
#X obj 257 336 hsl 128 15 0 127 0 0 fund fund-set fundamental 16 8
0 12 -262144 -1 -1 5000 1;
#X obj 254 183 tgl 15 0 refresh refresh-set refresh-on-off 17 7 0 12
-262144 -1 -1 1 1;
#N canvas 509 155 603 569 list-process 0;
#X obj 60 26 inlet;
#X obj 192 357 t l;
#X obj 60 416 list;
#X obj 60 485 list prepend 0;
#X obj 60 507 s barkSpec-graph;
#X obj 89 451 s barkSpec;
#X obj 92 243 moses 0.2;
#X obj 92 264 t b;
#X msg 92 285 0;
#X obj 162 243 r thresh;
#X text 150 266 <<< Here \, we bash any amplitudes below the given
threshold value to 0 so we don't power oscillators in bands where there's
just low-level noise.;
#X text 158 10 This drops every other value in the 48-point list of
magnitudes from the Bark filterbank (0.52 Bark spacing). Basically
\, it's a crude way to bypass the overlapping filters in barkSpec~'s
bank. We end up with the output of the nonoverlapping filters spaced
about one Bark apart from each other \, creating 24 non-overlapping
bands.;
#X obj 92 356 list prepend;
#X obj 60 115 t b l b, f 51;
#X obj 176 145 list-drip;
#X obj 176 167 t f b;
#X obj 176 209 spigot;
#X obj 269 166 + 1;
#X obj 269 188 % 2;
#X obj 229 174 f;
#X msg 246 142 1;
#X connect 0 0 13 0;
#X connect 1 0 12 1;
#X connect 2 0 3 0;
#X connect 2 0 5 0;
#X connect 3 0 4 0;
#X connect 6 0 7 0;
#X connect 6 1 12 0;
#X connect 7 0 8 0;
#X connect 8 0 12 0;
#X connect 9 0 6 1;
#X connect 12 0 1 0;
#X connect 12 0 2 1;
#X connect 13 0 2 0;
#X connect 13 1 14 0;
#X connect 13 2 12 1;
#X connect 13 2 20 0;
#X connect 14 0 15 0;
#X connect 15 0 16 0;
#X connect 15 1 19 0;
#X connect 16 0 6 0;
#X connect 17 0 18 0;
#X connect 18 0 19 1;
#X connect 19 0 17 0;
#X connect 19 0 16 1;
#X connect 20 0 19 1;
#X restore 36 291 pd list-process;
#X floatatom 254 402 5 0 100 1 threshold thresh-set thresh, f 5;
#X text 251 433 Shift-drag the threshold number box to change the minimum
input gain requirement. Anything less than this will produce a level
of 0 for the band in question.;
#X obj 3 4 cnv 10 400 10 empty empty empty 20 12 0 14 -233017 -66577
0;
#X obj 3 4 cnv 10 10 400 empty empty empty 20 12 0 14 -233017 -66577
0;
#X floatatom 392 223 5 1 108 1 ms refresh-rate -, f 5;
#N canvas 239 212 791 690 sequencer 0;
#X obj 34 82 t b b;
#X msg 34 140 0;
#X obj 130 194 f;
#X obj 160 194 + 1;
#N canvas 0 22 450 300 (subpatch) 0;
#X array syllable-durations 9 float 2;
#X coords 0 350 9 0 400 280 1 0 0;
#X restore 338 41 graph;
#X obj 130 268 t f b;
#X obj 63 428 del;
#N canvas 0 22 450 300 (subpatch) 0;
#X array scale 18 float 2;
#X coords 0 108 18 21 400 280 1 0 0;
#X restore 339 361 graph;
#X obj 178 324 f;
#X obj 208 324 + 1;
#X msg 31 363 stop;
#X obj 130 219 moses 9;
#X obj 178 438 s fund-set;
#X obj 178 376 tabread scale;
#X obj 63 450 s seq-next;
#X obj 34 60 r seq-reset;
#X obj 130 144 r seq-next;
#X obj 178 346 % 18;
#X obj 178 408 spigot;
#X obj 231 408 r seq-switch;
#X obj 31 338 r del-stop;
#X obj 66 108 s del-stop;
#X obj 130 246 tabread syllable-durations;
#X msg 32 523 offset 1;
#X obj 72 585 tabletool scale;
#X msg 81 554 offset -1;
#X text 117 515 Transpose the scale up/down;
#X connect 0 0 1 0;
#X connect 0 1 21 0;
#X connect 1 0 2 0;
#X connect 2 0 3 0;
#X connect 2 0 11 0;
#X connect 3 0 2 1;
#X connect 5 0 6 0;
#X connect 5 1 8 0;
#X connect 6 0 14 0;
#X connect 8 0 9 0;
#X connect 8 0 17 0;
#X connect 9 0 8 1;
#X connect 10 0 6 0;
#X connect 11 0 22 0;
#X connect 13 0 18 0;
#X connect 15 0 0 0;
#X connect 16 0 2 0;
#X connect 17 0 13 0;
#X connect 18 0 12 0;
#X connect 19 0 18 1;
#X connect 20 0 10 0;
#X connect 22 0 5 0;
#X connect 23 0 24 0;
#X connect 25 0 24 0;
#X restore 36 412 pd sequencer;
#X obj 254 303 tgl 15 0 seq-switch seq-switch-set sequencer-on-off
17 7 0 12 -262144 -1 -1 0 1;
#N canvas 6 81 471 440 sf-player 0;
#X obj 63 194 readsf~;
#X obj 144 316 spigot;
#X msg 164 127 stop;
#X obj 63 118 t a b;
#X obj 269 219 s seq-reset;
#X obj 211 316 inlet;
#X obj 63 276 outlet~;
#X obj 309 142 s del-stop;
#X obj 130 35 inlet;
#X obj 130 57 select 1 0;
#X obj 173 270 s play-toggle-set;
#X msg 173 248 0;
#X obj 144 368 s play-toggle-set;
#X msg 144 346 1;
#X obj 113 221 t b b;
#X msg 63 94 open ../audio/voice.wav \, start;
#X connect 0 0 6 0;
#X connect 0 1 14 0;
#X connect 1 0 13 0;
#X connect 2 0 0 0;
#X connect 3 0 0 0;
#X connect 3 1 4 0;
#X connect 5 0 1 1;
#X connect 8 0 9 0;
#X connect 9 0 15 0;
#X connect 9 1 2 0;
#X connect 9 1 7 0;
#X connect 11 0 10 0;
#X connect 13 0 12 0;
#X connect 14 0 1 0;
#X connect 14 1 11 0;
#X connect 15 0 3 0;
#X restore 37 99 pd sf-player;
#X obj 106 78 tgl 15 0 empty empty loop 17 7 0 12 -262144 -1 -1 0 1
;
#X obj 37 75 tgl 15 0 empty play-toggle-set play 17 7 0 12 -262144
-1 -1 0 1;
#X text 251 266 Try the auto-sequencer. Check out [pd sequencer] if
you'd like to change the melody.;
#X text 691 438 timbreID - William Brent 2017;
#X obj 36 261 barkSpec~ 1024 0.52;
#X obj 254 125 volume~;
#X obj 72 209 metro;
#X obj 104 174 r refresh-rate;
#X obj 72 153 r refresh;
#X text 532 75 Here's a 24-band vocoder using barkSpec~ as an analysis
filterbank spaced in Barks. You can play with the proportional levels
of all oscillators in the [pd loudness-curve] subpatch. If you use
an [adc~] for live input \, you should use headphones to avoid feedback.
, f 45;
#X obj 133 220 r bs;
#X connect 1 0 24 0;
#X connect 18 0 23 0;
#X connect 19 0 18 1;
#X connect 20 0 18 0;
#X connect 23 0 10 0;
#X connect 25 0 23 0;
#X connect 26 0 25 1;
#X connect 27 0 25 0;
#X connect 29 0 23 0;
