#N canvas 234 81 874 631 10;
#X obj 50 310 bng 15 250 50 0 empty empty empty 17 7 0 10 -262144 -1
-1;
#N canvas 0 50 450 300 (subpatch) 0;
#X array \$0-waveform 1024 float 0;
#X coords 0 1 1023 -1 200 140 1 0 0;
#X restore 47 47 graph;
#X text 72 307 Bang to analyze the entire array.;
#N canvas 666 270 482 216 soundfile 0;
#X obj 50 103 soundfiler;
#X obj 50 24 loadbang;
#X obj 185 120 table \$0-sample 130000;
#X msg 50 78 read -skip 120000 ./audio/testing.wav \$1-sample;
#X obj 50 46 f \$0;
#X connect 1 0 4 0;
#X connect 3 0 0 0;
#X connect 4 0 3 0;
#X restore 655 86 pd soundfile;
#X msg 107 455 analyze \$1 1024;
#N canvas 1126 218 653 333 waveform 0;
#X obj 46 61 inlet;
#X obj 46 82 t f f;
#X obj 91 131 + 1023;
#X msg 46 200 copy_range 0 \$3-sample \$1 \$2;
#X obj 46 164 pack f f \$0;
#X obj 46 241 tabletool \$0-waveform;
#X floatatom 310 64 5 0 0 0 - - -, f 5;
#X obj 310 84 pack f f \$0;
#X floatatom 425 19 5 0 0 0 - - -, f 5;
#X msg 310 105 \; \$3-specPhase-graph bounds \$1 3.15 \$2 -3.15 \;
;
#X obj 425 39 t b f;
#X connect 0 0 1 0;
#X connect 1 0 4 0;
#X connect 1 1 2 0;
#X connect 2 0 4 1;
#X connect 3 0 5 0;
#X connect 4 0 3 0;
#X connect 6 0 7 0;
#X connect 7 0 9 0;
#X connect 8 0 10 0;
#X connect 10 0 7 0;
#X connect 10 1 7 1;
#X restore 655 138 pd waveform;
#X obj 50 243 hsl 800 25 0 128000 0 0 \$0-scrub-bar empty Scrub-bar
-2 -8 0 12 -191407 -1 -1 26500 1;
#X obj 3 3 cnv 10 400 10 empty empty empty 20 12 0 14 -233017 -66577
0;
#X obj 3 3 cnv 10 10 400 empty empty empty 20 12 0 14 -233017 -66577
0;
#N canvas 608 189 746 483 other-settings 0;
#X obj 44 56 hradio 15 1 0 5 empty empty empty 0 -8 0 10 -262144 -1
-1 4;
#X msg 44 76 window_function \$1;
#X obj 100 118 tgl 15 0 empty empty empty 17 7 0 10 -262144 -1 -1 0
1;
#X msg 100 136 normalize \$1;
#X msg 140 188 set another-sample-array;
#X msg 179 244 samplerate 48000;
#X text 328 187 Read from a different array;
#X msg 205 297 power_spectrum \$1;
#X obj 205 279 tgl 15 0 empty empty empty 17 7 0 10 -262144 -1 -1 0
1;
#X obj 44 415 outlet;
#X text 206 136 Normalize spectrum (default: ON);
#X text 313 243 Specify your sample's sampling rate. (default: 44100)
;
#X text 346 297 Use power spectrum. (default: magnitude);
#X msg 257 346 print;
#X text 42 19 Change windowing function. Rectangular (0) \, Blackman
(1) \, Cosine (2) \, Hamming (3) \, or Hann (4). (default: Blackman)
;
#X text 307 348 Print current settings in the post window;
#X connect 0 0 1 0;
#X connect 1 0 9 0;
#X connect 2 0 3 0;
#X connect 3 0 9 0;
#X connect 4 0 9 0;
#X connect 5 0 9 0;
#X connect 7 0 9 0;
#X connect 8 0 7 0;
#X connect 13 0 9 0;
#X restore 152 498 pd other-settings;
#X text 607 550 Updated for timbreID version 0.7;
#X msg 94 379 analyze 44100 2000;
#X obj 107 433 r \$0-scrub-bar;
#X obj 655 116 r \$0-scrub-bar;
#X text 235 438 Move through the soundfile with the slider above,
f 28;
#N canvas 205 170 463 267 do-plotting 0;
#X obj 79 37 inlet;
#X obj 79 173 list prepend 0;
#X obj 233 116 list length;
#X obj 233 138 change;
#X obj 233 160 pack f \$0;
#X obj 79 59 t l l;
#X obj 79 194 s \$0-specPhase-graph;
#X msg 233 181 \; \$2-specPhase-graph resize \$1 \;;
#X connect 0 0 5 0;
#X connect 1 0 6 0;
#X connect 2 0 3 0;
#X connect 3 0 4 0;
#X connect 4 0 7 0;
#X connect 5 0 1 0;
#X connect 5 1 2 0;
#X restore 50 582 pd do-plotting;
#X text 213 540 Creation argument is the name of the sample array to
read from., f 33;
#X text 596 389 See the real-time version for more information on magnitude
spectrum in general., f 33;
#X text 607 570 July 2017;
#X text 92 345 Analyze a window starting at sample 44100 that is 2000
samples long (samples 44100 - 46099).;
#X obj 50 546 specPhase \$0-sample;
#X obj 598 438 specPhase~;
#N canvas 0 50 450 300 (subpatch) 0;
#X array \$0-specPhase-graph 513 float 2;
#X coords 0 3.15 513 -3.15 200 140 1 0 0;
#X restore 317 47 graph;
#X text 546 36 pi;
#X text 543 179 -pi;
#X floatatom 491 354 10 0 0 0 - - -, f 10;
#X obj 491 374 s \$0-scrub-bar;
#X obj 474 295 r \$0-scrub-bar;
#X msg 474 316 set \$1;
#N canvas 0 50 450 300 (subpatch) 0;
#X array \$0-specPhase-graph-alt 513 float 2;
#X coords 0 3.15 513 -3.15 200 140 1 0 0;
#X restore 317 47 graph;
#N canvas 761 236 858 587 test-chain 0;
#X obj 109 254 list trim;
#X obj 257 403 list prepend 0;
#X obj 109 233 list prepend chain_fftData;
#X obj 109 203 list append;
#X obj 263 32 inlet;
#X obj 87 136 tID_fft \$0-sample;
#X obj 625 331 bng 15 250 50 0 empty empty empty 17 7 0 10 -262144
-1 -1;
#X obj 625 351 f \$0;
#X obj 691 433 print;
#X floatatom 599 102 5 0 0 0 - - -, f 5;
#X floatatom 629 223 15 0 0 0 - - -, f 15;
#X floatatom 729 223 15 0 0 0 - - -, f 15;
#X obj 257 382 specPhase \$0-sample;
#X obj 257 424 s \$0-specPhase-graph-alt;
#X obj 574 398 tabletool \$0-specPhase-graph-alt;
#X obj 629 202 tabread \$0-specPhase-graph-alt;
#X obj 629 152 tabread \$0-specPhase-graph;
#X msg 574 377 subtract \$1-specPhase-graph;
#X connect 0 0 12 0;
#X connect 1 0 13 0;
#X connect 2 0 0 0;
#X connect 3 0 2 0;
#X connect 4 0 5 0;
#X connect 5 0 3 0;
#X connect 5 1 3 1;
#X connect 6 0 7 0;
#X connect 7 0 17 0;
#X connect 9 0 15 0;
#X connect 9 0 16 0;
#X connect 12 0 1 0;
#X connect 14 1 8 0;
#X connect 15 0 10 0;
#X connect 16 0 11 0;
#X connect 17 0 14 0;
#X restore 298 479 pd test-chain;
#X connect 0 0 20 0;
#X connect 4 0 20 0;
#X connect 4 0 30 0;
#X connect 9 0 20 0;
#X connect 11 0 20 0;
#X connect 12 0 4 0;
#X connect 13 0 5 0;
#X connect 20 0 15 0;
#X connect 25 0 26 0;
#X connect 27 0 28 0;
#X connect 28 0 25 0;
