#N canvas 133 121 1088 613 10;
#X declare -path ./lib -path ../lib;
#X obj 533 500 timbreID;
#X msg 552 472 clear;
#X obj 889 462 table timbreID-set;
#X msg 494 143 order \$1;
#X floatatom 494 126 5 0 3701 0 - - -, f 5;
#X obj 648 423 tgl 15 0 empty lb1 empty 17 7 0 10 -262144 -1 -1 1 1
;
#X msg 648 443 relative_ordering \$1;
#N canvas 376 79 593 325 players 0;
#X obj 311 27 catch~ timbre-order-sum;
#X obj 59 101 clone grain-player-unit-abs 32;
#X obj 311 218 outlet~;
#X connect 0 0 2 0;
#X restore 798 219 pd players;
#X obj 494 231 tgl 15 0 empty empty empty 17 7 0 10 -262144 -1 -1 0
1;
#X floatatom 575 231 5 5 1000 0 - - -, f 5;
#N canvas 697 212 255 162 random-no-replacement 0;
#X obj 21 33 inlet;
#X msg 21 54 scramble;
#X obj 21 75 tabletool timbreOrder;
#X connect 0 0 1 0;
#X connect 1 0 2 0;
#X restore 494 346 pd random-no-replacement;
#X obj 494 325 bng 15 250 50 0 empty empty empty 17 7 0 10 -262144
-1 -1;
#N canvas 553 81 494 385 init 0;
#X msg 54 294 \; pd dsp 1 \;;
#X obj 54 20 loadbang;
#X obj 121 241 s lb1;
#X msg 155 158 \; samplerate 44100 \; master-volume-set 80 \;;
#X obj 54 41 t b b b;
#X obj 252 311 declare -path ./lib -path ../lib;
#X connect 1 0 4 0;
#X connect 4 0 0 0;
#X connect 4 1 2 0;
#X connect 4 2 3 0;
#X restore 889 442 pd init;
#X text 515 325 Load random order as a point of comparison.;
#X text 619 229 Grain rate in ms.;
#N canvas 457 216 465 408 auto-play 0;
#X obj 137 133 bng 15 250 50 0 empty empty empty 17 7 0 10 -262144
-1 -1;
#X obj 184 133 + 1;
#X text 53 131 Manual step;
#X msg 173 111 0;
#X floatatom 106 190 5 0 0 0 - - current-grain, f 5;
#X obj 185 216 + 1;
#X obj 155 298 pack f f;
#X obj 155 195 t b f;
#X obj 155 20 inlet;
#X obj 250 20 inlet;
#X obj 155 41 t f b;
#X obj 214 154 r num-grains;
#X obj 155 89 metro 10;
#X obj 155 133 f;
#X obj 184 154 %;
#X obj 155 216 f;
#X msg 155 320 \; play-\$1 \$2 \;;
#X text 13 63 Auto-play through timbre order, f 19;
#X obj 185 236 % 32;
#X connect 0 0 13 0;
#X connect 1 0 14 0;
#X connect 3 0 13 1;
#X connect 5 0 18 0;
#X connect 6 0 16 0;
#X connect 7 0 15 0;
#X connect 7 1 6 1;
#X connect 8 0 10 0;
#X connect 9 0 12 1;
#X connect 10 0 12 0;
#X connect 10 1 3 0;
#X connect 11 0 14 1;
#X connect 12 0 13 0;
#X connect 13 0 1 0;
#X connect 13 0 4 0;
#X connect 13 0 7 0;
#X connect 14 0 13 1;
#X connect 15 0 5 0;
#X connect 15 0 6 0;
#X connect 18 0 15 1;
#X restore 494 255 pd auto-play;
#X obj 50 63 cnv 15 200 40 empty empty empty 20 12 0 14 -228856 -66577
0;
#N canvas 884 461 382 296 order-routing 0;
#X obj 31 40 inlet;
#X obj 31 229 s timbreOrder;
#X obj 31 210 list prepend 0;
#X obj 180 154 list length;
#X msg 180 215 \; timbreOrder resize \$1;
#X obj 180 175 t f f;
#X obj 212 195 s ordering-length;
#X obj 31 117 t l l;
#X obj 31 62 route order;
#X connect 0 0 8 0;
#X connect 2 0 1 0;
#X connect 3 0 5 0;
#X connect 5 0 4 0;
#X connect 5 1 6 0;
#X connect 7 0 2 0;
#X connect 7 1 3 0;
#X connect 8 0 7 0;
#X restore 592 528 pd order-routing;
#X obj 38 476 cnv 15 180 50 empty empty empty 20 12 0 14 -228856 -66577
0;
#X obj 52 300 bng 15 250 50 0 empty empty empty 17 7 0 10 -262144 -1
-1;
#X obj 145 340 bng 15 250 50 0 empty empty empty 17 7 0 10 -262144
-1 -1;
#X text 75 297 2) Load the provided soundfile \, or...;
#X text 170 338 ...load your own file;
#X obj 242 479 bng 15 250 50 0 empty empty empty 17 7 0 10 -258113
-1 -1;
#X text 265 471 4) Store analysis results \; to a separate file for
later.;
#X obj 52 440 bng 15 250 50 0 empty empty empty 17 7 0 10 -262144 -1
-1;
#X text 75 437 3) Analyze. This will choke Pd for a few seconds...
;
#N canvas 458 133 684 653 analysis 0;
#X obj 344 114 cnv 15 200 30 empty empty empty 20 12 0 14 -261234 -66577
0;
#X obj 158 18 r window-size;
#X text 354 120 Write analysis file;
#X obj 33 55 inlet;
#X msg 33 315 analyze \$1 \$2;
#X obj 33 294 pack f f;
#X obj 33 184 until;
#X obj 66 235 + 1024;
#X obj 86 268 r window-size;
#X msg 51 210 0;
#X obj 158 146 r sf-length;
#X obj 344 171 inlet;
#X msg 125 356 normalize 0;
#X text 211 350 Try analyzing without normalization too. The results
will also be good \, but different.;
#X obj 158 188 t f f;
#X obj 191 241 s num-grains;
#X obj 191 214 i;
#X obj 33 463 t b a;
#X obj 33 524 outlet;
#X obj 158 108 t f f;
#X obj 33 75 t b b b;
#X msg 79 115 clear;
#X obj 344 276 s \$0-tID;
#X obj 65 497 s \$0-tID;
#X obj 79 136 s \$0-tID;
#X obj 158 89 /;
#X obj 158 167 /;
#X obj 33 163 f;
#X obj 33 235 f;
#X obj 33 412 barkSpec timbreID-set 0.25;
#X msg 344 204 write ./data/cartoon-db.timid;
#X msg 354 234 read ./data/cartoon-db.timid;
#X obj 176 40 r overlap;
#X obj 176 62 t b f;
#X connect 1 0 25 0;
#X connect 3 0 20 0;
#X connect 4 0 29 0;
#X connect 5 0 4 0;
#X connect 6 0 28 0;
#X connect 7 0 28 1;
#X connect 8 0 5 1;
#X connect 9 0 28 1;
#X connect 10 0 26 0;
#X connect 11 0 30 0;
#X connect 12 0 29 0;
#X connect 14 0 27 1;
#X connect 14 1 16 0;
#X connect 16 0 15 0;
#X connect 17 0 18 0;
#X connect 17 1 23 0;
#X connect 19 0 7 1;
#X connect 19 1 26 1;
#X connect 20 0 27 0;
#X connect 20 1 9 0;
#X connect 20 2 21 0;
#X connect 21 0 24 0;
#X connect 25 0 19 0;
#X connect 26 0 14 0;
#X connect 27 0 6 0;
#X connect 28 0 7 0;
#X connect 28 0 5 0;
#X connect 29 0 17 0;
#X connect 30 0 22 0;
#X connect 31 0 22 0;
#X connect 32 0 33 0;
#X connect 33 0 25 0;
#X connect 33 1 25 1;
#X restore 52 494 pd analysis;
#X obj 709 120 nbx 7 24 -1e+37 1e+37 0 0 empty num-grains empty 0 -8
0 24 -262144 -1 -1 0 256;
#X text 492 207 5) Auto play through the ordering.;
#X obj 52 537 bng 15 250 50 0 empty empty Done 17 7 0 12 -262144 -1
-1;
#X text 492 39 4) Request an ordering starting on a grain in the available
range;
#X obj 533 442 r \$0-tID;
#X obj 494 164 s \$0-tID;
#X obj 648 464 s \$0-tID;
#X floatatom 596 255 5 0 0 0 - current-grain -, f 5;
#X obj 4 3 cnv 10 400 10 empty empty empty 20 12 0 14 -233017 -66577
0;
#X obj 4 3 cnv 10 10 400 empty empty empty 20 12 0 14 -233017 -66577
0;
#N canvas 654 33 515 323 INSTRUCTIONS 1;
#X text 38 193 Try a few different orderings \, then try loading a
random order as a point of comparison.;
#X text 38 234 After you've messed around with this sound source \,
analyze your own audio and explore its possible orderings.;
#X text 38 25 This example can order grains of sound from any file
you choose (cartoons.wav is provided in the audio directory). With
the default sound file and window-size \, each grain is 92.88 ms long.
Before you use the patch \, listen to cartoons.wav to see what the
sound source is like in general. Then analyze it \, request an ordering
(I like 400) \, and auto-play through the ordering. The re-ordered
version of the sound source produces sonic gestures that were never
in cartoons.wav \, but still have convincing continuity. cartoons.wav
is pretty low quality audio and has a lot of hiss \, clicks \, and
pops. Notice that all the purely noisy grains get grouped together.
;
#X restore 80 76 pd INSTRUCTIONS;
#X msg 52 196 \; overlap 1 \; window-size 4096 \;;
#X msg 494 96 400;
#X msg 534 96 777;
#X msg 574 96 13;
#X text 707 100 Total number of grains:;
#X text 819 574 timbreID - William Brent 2017;
#X obj 798 241 volume~;
#X text 50 161 1) Specify an overlap and analysis window size.;
#N canvas 682 409 341 293 timbreOrder-table 0;
#X msg 39 209 \; timbreOrder bounds 0 \$2 \$1 0 \;;
#X obj 39 186 pack f f;
#X obj 39 36 r num-grains;
#X obj 158 48 table timbreOrder;
#X obj 39 57 t f f f;
#X msg 101 102 \; timbreOrder resize \$1 \;;
#X obj 89 156 - 1;
#X connect 1 0 0 0;
#X connect 2 0 4 0;
#X connect 4 0 1 0;
#X connect 4 1 6 0;
#X connect 4 2 5 0;
#X connect 6 0 1 1;
#X restore 889 483 pd timbreOrder-table;
#N canvas 389 299 631 356 load-database 0;
#X obj 63 192 soundfiler;
#X obj 63 33 inlet;
#X obj 206 97 inlet;
#X obj 206 117 openpanel;
#X obj 63 232 s sf-length;
#X msg 206 139 read -resize -maxsize 5.8212e+07 \$1 timbreID-set;
#X floatatom 73 214 10 0 1.323e+06 0 - - -, f 10;
#X msg 63 59 read -resize -maxsize 2.7e+07 ../audio/cartoons.wav timbreID-set
;
#X connect 0 0 4 0;
#X connect 0 0 6 0;
#X connect 1 0 7 0;
#X connect 2 0 3 0;
#X connect 3 0 5 0;
#X connect 5 0 0 0;
#X connect 7 0 0 0;
#X restore 52 374 pd load-database;
#X connect 0 3 17 0;
#X connect 1 0 0 0;
#X connect 3 0 33 0;
#X connect 4 0 3 0;
#X connect 5 0 6 0;
#X connect 6 0 34 0;
#X connect 7 0 45 0;
#X connect 8 0 15 0;
#X connect 9 0 15 1;
#X connect 11 0 10 0;
#X connect 19 0 48 0;
#X connect 20 0 48 1;
#X connect 23 0 27 1;
#X connect 25 0 27 0;
#X connect 27 0 30 0;
#X connect 32 0 0 0;
#X connect 40 0 4 0;
#X connect 41 0 4 0;
#X connect 42 0 4 0;
