#N canvas 237 23 874 631 10;
#X obj 50 310 bng 15 250 50 0 empty empty empty 17 7 0 10 -262144 -1
-1;
#N canvas 0 22 450 300 (subpatch) 0;
#X array \$0-waveform 1024 float 0;
#X coords 0 1 1023 -1 200 140 1 0 0;
#X restore 47 47 graph;
#N canvas 0 22 450 300 (subpatch) 0;
#X array \$0-magSpec-graph 513 float 0;
#X coords 0 0.25 512 0 200 140 1 0 0;
#X restore 313 47 graph;
#X text 72 307 Bang to analyze the entire array.;
#N canvas 666 270 482 216 soundfile 0;
#X obj 50 103 soundfiler;
#X obj 50 24 loadbang;
#X obj 185 120 table \$0-sample 130000;
#X msg 50 78 read -skip 120000 ./audio/testing.wav \$1-sample;
#X obj 50 46 f \$0;
#X connect 1 0 4 0;
#X connect 3 0 0 0;
#X connect 4 0 3 0;
#X restore 655 86 pd soundfile;
#X msg 107 455 analyze \$1 1024;
#N canvas 722 238 304 333 waveform 0;
#X obj 46 61 inlet;
#X obj 46 82 t f f;
#X obj 91 131 + 1023;
#X msg 46 200 copy_range 0 \$3-sample \$1 \$2;
#X obj 46 164 pack f f \$0;
#X obj 46 241 tabletool \$0-waveform;
#X connect 0 0 1 0;
#X connect 1 0 4 0;
#X connect 1 1 2 0;
#X connect 2 0 4 1;
#X connect 3 0 5 0;
#X connect 4 0 3 0;
#X restore 655 138 pd waveform;
#X obj 50 243 hsl 800 25 0 128000 0 0 \$0-scrub-bar empty Scrub-bar
-2 -8 0 12 -191407 -1 -1 0 1;
#X obj 3 3 cnv 10 400 10 empty empty empty 20 12 0 14 -233017 -66577
0;
#X obj 3 3 cnv 10 10 400 empty empty empty 20 12 0 14 -233017 -66577
0;
#N canvas 611 185 670 483 other-settings 0;
#X obj 44 56 hradio 15 1 0 5 empty empty empty 0 -8 0 10 -262144 -1
-1 4;
#X msg 44 76 window_function \$1;
#X obj 100 118 tgl 15 0 empty empty empty 17 7 0 10 -262144 -1 -1 0
1;
#X msg 100 136 normalize \$1;
#X msg 140 188 set another-sample-array;
#X msg 179 244 samplerate 48000;
#X text 328 187 Read from a different array;
#X msg 205 297 power_spectrum \$1;
#X obj 205 279 tgl 15 0 empty empty empty 17 7 0 10 -262144 -1 -1 0
1;
#X obj 44 415 outlet;
#X text 206 136 Normalize spectrum (default: ON);
#X text 313 243 Specify your sample's sampling rate. (default: 44100)
;
#X text 346 297 Use power spectrum. (default: magnitude);
#X msg 257 346 print;
#X text 42 19 Change windowing function. Rectangular (0) \, Blackman
(1) \, Cosine (2) \, Hamming (3) \, or Hann (4). (default: Blackman)
;
#X text 307 348 Print current settings in the post window;
#X connect 0 0 1 0;
#X connect 1 0 9 0;
#X connect 2 0 3 0;
#X connect 3 0 9 0;
#X connect 4 0 9 0;
#X connect 5 0 9 0;
#X connect 7 0 9 0;
#X connect 8 0 7 0;
#X connect 13 0 9 0;
#X restore 152 498 pd other-settings;
#X text 607 550 Updated for timbreID version 0.7;
#X msg 94 379 analyze 44100 2000;
#X obj 107 433 r \$0-scrub-bar;
#X obj 655 116 r \$0-scrub-bar;
#X text 209 432 Move through the soundfile with the slider above;
#N canvas 205 170 463 267 do-plotting 0;
#X obj 79 37 inlet;
#X obj 79 173 list prepend 0;
#X obj 203 116 list length;
#X obj 203 138 change;
#X obj 203 160 pack f \$0;
#X obj 79 59 t l l;
#X obj 79 194 s \$0-magSpec-graph;
#X msg 203 181 \; \$2-magSpec-graph resize \$1 \;;
#X connect 0 0 5 0;
#X connect 1 0 6 0;
#X connect 2 0 3 0;
#X connect 3 0 4 0;
#X connect 4 0 7 0;
#X connect 5 0 1 0;
#X connect 5 1 2 0;
#X restore 50 582 pd do-plotting;
#X text 213 540 Creation argument is the name of the sample array to
read from., f 33;
#X obj 50 546 magSpec \$0-sample;
#X obj 598 438 magSpec~;
#X text 596 389 See the real-time version for more information on magnitude
spectrum in general., f 33;
#X text 607 570 July 2017;
#X text 103 339 Analyze a window starting at sample 44100 that is 2000
samples long (samples 44100 - 46099).;
#X connect 0 0 18 0;
#X connect 5 0 18 0;
#X connect 10 0 18 0;
#X connect 12 0 18 0;
#X connect 13 0 5 0;
#X connect 14 0 6 0;
#X connect 18 0 16 0;
