#N canvas 313 227 1123 658 10;
#X obj 433 401 list append;
#X obj 58 506 list append;
#X obj 132 485 list append;
#X obj 507 380 list append;
#X obj 211 464 list append;
#X obj 285 443 list append;
#X obj 359 422 list append;
#X obj 598 359 list append;
#X obj 672 338 list append;
#N canvas 206 49 500 584 kurt 0;
#X obj 123 501 outlet;
#X obj 123 43 inlet;
#X obj 123 271 specKurtosis~ 1024;
#X obj 175 227 r~ te-sig-in;
#X obj 123 372 featureAccum 57 1;
#X connect 1 0 2 0;
#X connect 2 0 4 0;
#X connect 3 0 2 0;
#X connect 4 0 0 0;
#X restore 746 296 pd kurt;
#N canvas 614 100 468 527 bfcc 0;
#X obj 168 445 outlet;
#X obj 134 17 inlet;
#X obj 41 212 r~ te-sig-in;
#X obj 134 290 list split 1;
#X obj 168 373 binWrangler 57 49;
#X obj 134 269 bfcc~ 1024;
#X connect 1 0 5 0;
#X connect 2 0 5 0;
#X connect 3 1 4 0;
#X connect 4 0 0 0;
#X connect 5 0 3 0;
#X restore 914 254 pd bfcc;
#X obj 746 317 list append;
#X obj 820 296 list append;
#N canvas 296 124 504 542 RMS 0;
#X obj 123 483 outlet;
#X obj 161 427 list prepend 0;
#X obj 123 23 inlet;
#X obj 143 271 env~ 1024 128;
#X obj 123 292 f;
#X obj 143 249 r~ te-sig-in;
#X obj 161 451 s rms-graph;
#X obj 123 332 featureAccum 57 1;
#X connect 1 0 6 0;
#X connect 2 0 4 0;
#X connect 3 0 4 1;
#X connect 4 0 7 0;
#X connect 5 0 3 0;
#X connect 7 0 1 0;
#X connect 7 0 0 0;
#X restore 977 254 pd RMS;
#X obj 914 274 list append;
#N canvas 582 271 335 512 barkSpec 0;
#X obj 114 425 outlet;
#X obj 114 17 inlet;
#X obj 114 269 barkSpec~ 1024;
#X obj 25 215 r~ te-sig-in;
#X obj 114 346 binWrangler 57 50;
#X connect 1 0 2 0;
#X connect 2 0 4 0;
#X connect 3 0 2 0;
#X connect 4 0 0 0;
#X restore 820 274 pd barkSpec;
#X obj 766 33 inlet;
#X obj 766 194 t b b b b b b b b b b b b b b;
#N canvas 206 49 500 584 skew 0;
#X obj 123 501 outlet;
#X obj 123 43 inlet;
#X obj 123 261 specSkewness~ 1024;
#X obj 165 209 r~ te-sig-in;
#X obj 123 372 featureAccum 57 1;
#X connect 1 0 2 0;
#X connect 2 0 4 0;
#X connect 3 0 2 0;
#X connect 4 0 0 0;
#X restore 672 317 pd skew;
#N canvas 206 49 500 584 spread 0;
#X obj 123 501 outlet;
#X obj 123 43 inlet;
#X obj 123 311 specSpread~ 1024;
#X obj 185 242 r~ te-sig-in;
#X obj 123 372 featureAccum 57 1;
#X connect 1 0 2 0;
#X connect 2 0 4 0;
#X connect 3 0 2 0;
#X connect 4 0 0 0;
#X restore 598 338 pd spread;
#N canvas 206 49 500 584 centroid 0;
#X obj 123 501 outlet;
#X obj 123 43 inlet;
#X obj 123 261 specCentroid~ 1024;
#X obj 162 219 r~ te-sig-in;
#X obj 161 427 list prepend 0;
#X obj 161 451 s centroid-graph;
#X obj 123 342 featureAccum 57 1;
#X connect 1 0 2 0;
#X connect 2 0 6 0;
#X connect 3 0 2 0;
#X connect 4 0 5 0;
#X connect 6 0 0 0;
#X connect 6 0 4 0;
#X restore 507 359 pd centroid;
#N canvas 206 49 500 584 flux 0;
#X obj 123 501 outlet;
#X obj 123 43 inlet;
#X obj 123 291 specFlux~ 1024 128;
#X obj 174 227 r~ te-sig-in;
#X obj 161 427 list prepend 0;
#X obj 161 451 s flux-graph;
#X obj 123 372 featureAccum 57 1;
#X connect 1 0 2 0;
#X connect 2 0 6 0;
#X connect 3 0 2 0;
#X connect 4 0 5 0;
#X connect 6 0 0 0;
#X connect 6 0 4 0;
#X restore 433 380 pd flux;
#N canvas 206 49 500 584 irreg 0;
#X obj 123 501 outlet;
#X obj 123 43 inlet;
#X obj 123 281 specIrregularity~ 1024;
#X obj 170 223 r~ te-sig-in;
#X obj 123 372 featureAccum 57 1;
#X connect 1 0 2 0;
#X connect 2 0 4 0;
#X connect 3 0 2 0;
#X connect 4 0 0 0;
#X restore 359 401 pd irreg;
#N canvas 206 49 500 584 flat 0;
#X obj 123 501 outlet;
#X obj 123 43 inlet;
#X obj 123 301 specFlatness~ 1024;
#X obj 167 230 r~ te-sig-in;
#X obj 123 372 featureAccum 57 1;
#X connect 1 0 2 0;
#X connect 2 0 4 0;
#X connect 3 0 2 0;
#X connect 4 0 0 0;
#X restore 285 422 pd flat;
#N canvas 206 49 500 584 bright 0;
#X obj 123 501 outlet;
#X obj 123 43 inlet;
#X obj 123 301 specBrightness~ 1024;
#X obj 173 232 r~ te-sig-in;
#X obj 123 372 featureAccum 57 1;
#X connect 1 0 2 0;
#X connect 2 0 4 0;
#X connect 3 0 2 0;
#X connect 4 0 0 0;
#X restore 211 443 pd bright;
#N canvas 206 49 500 584 rolloff 0;
#X obj 123 501 outlet;
#X obj 123 43 inlet;
#X obj 123 291 specRolloff~ 1024;
#X obj 169 231 r~ te-sig-in;
#X obj 123 372 featureAccum 57 1;
#X connect 1 0 2 0;
#X connect 2 0 4 0;
#X connect 3 0 2 0;
#X connect 4 0 0 0;
#X restore 132 463 pd rolloff;
#N canvas 206 49 500 584 zerocr 0;
#X obj 123 501 outlet;
#X obj 123 43 inlet;
#X obj 123 271 zeroCrossing~ 1024;
#X obj 170 220 r~ te-sig-in;
#X obj 123 372 featureAccum 57 1;
#X connect 1 0 2 0;
#X connect 2 0 4 0;
#X connect 3 0 2 0;
#X connect 4 0 0 0;
#X restore 58 484 pd zerocr;
#X obj 58 587 outlet;
#X obj 76 42 inlet~;
#X obj 76 63 s~ te-sig-in;
#N canvas 298 228 543 359 RMS-graph 0;
#N canvas 0 22 450 300 (subpatch) 0;
#X array rms-graph 57 float 0;
#X coords 0 100 56 0 400 280 1;
#X restore 62 44 graph;
#X restore 163 151 pd RMS-graph;
#N canvas 639 93 543 359 centroid-graph 0;
#N canvas 0 22 450 300 (subpatch) 0;
#X array centroid-graph 57 float 0;
#X coords 0 15000 56 0 400 280 1;
#X restore 62 34 graph;
#X restore 163 171 pd centroid-graph;
#N canvas 298 228 543 359 flux-graph 0;
#N canvas 0 22 450 300 (subpatch) 0;
#X array flux-graph 57 float 0;
#X coords 0 1 56 0 400 280 1;
#X restore 62 44 graph;
#X restore 163 191 pd flux-graph;
#X msg 766 117 1;
#X msg 829 117 0;
#X obj 766 147 metro 5.80499;
#X obj 766 167 t b b;
#X obj 829 67 f;
#X obj 859 67 + 1;
#X msg 844 40 0;
#X obj 766 63 t b b;
#X obj 829 89 select 56;
#X text 923 85 Grab exactly 57 snapshots spaced about 6ms apart, f
20;
#X connect 0 0 6 1;
#X connect 1 0 27 0;
#X connect 2 0 1 1;
#X connect 3 0 0 1;
#X connect 4 0 2 1;
#X connect 5 0 4 1;
#X connect 6 0 5 1;
#X connect 7 0 3 1;
#X connect 8 0 7 1;
#X connect 9 0 11 0;
#X connect 10 0 14 0;
#X connect 11 0 8 1;
#X connect 12 0 11 1;
#X connect 13 0 14 1;
#X connect 14 0 12 1;
#X connect 15 0 12 0;
#X connect 16 0 40 0;
#X connect 17 1 26 0;
#X connect 17 2 25 0;
#X connect 17 3 24 0;
#X connect 17 4 23 0;
#X connect 17 5 22 0;
#X connect 17 6 21 0;
#X connect 17 7 20 0;
#X connect 17 8 19 0;
#X connect 17 9 18 0;
#X connect 17 10 9 0;
#X connect 17 11 15 0;
#X connect 17 12 10 0;
#X connect 17 13 13 0;
#X connect 18 0 8 0;
#X connect 19 0 7 0;
#X connect 20 0 3 0;
#X connect 21 0 0 0;
#X connect 22 0 6 0;
#X connect 23 0 5 0;
#X connect 24 0 4 0;
#X connect 25 0 2 0;
#X connect 26 0 1 0;
#X connect 28 0 29 0;
#X connect 33 0 35 0;
#X connect 34 0 35 0;
#X connect 35 0 36 0;
#X connect 36 0 17 0;
#X connect 36 1 37 0;
#X connect 37 0 38 0;
#X connect 37 0 41 0;
#X connect 38 0 37 1;
#X connect 39 0 37 1;
#X connect 40 0 33 0;
#X connect 40 1 39 0;
#X connect 41 0 34 0;
