#N canvas 229 169 964 542 12;
#N canvas 0 22 450 300 (subpatch) 0;
#X array \$0-magSpec-graph 1025 float 0;
#X coords 0 0.25 1024 0 200 140 1 0 0;
#X restore 41 59 graph;
#N canvas 0 22 450 300 (subpatch) 0;
#X array \$0-barkSpec-graph 50 float 0;
#X coords 0 1 49 0 200 140 1;
#X restore 271 59 graph;
#N canvas 0 22 450 300 (subpatch) 0;
#X array \$0-bfcc-graph 50 float 0;
#X coords 0 1 49 -1 200 140 1;
#X restore 501 59 graph;
#N canvas 0 22 450 300 (subpatch) 0;
#X array \$0-cepstrum-graph 1025 float 0;
#X coords 0 1 1024 -0.6 200 140 1 0 0;
#X restore 731 59 graph;
#X obj 41 272 nbx 5 32 -1e+37 1e+37 0 0 empty \$0-brightness-graph
empty 0 -8 0 32 -262144 -1 -1 0.635395 256;
#X text 39 252 Brightness;
#X obj 271 272 nbx 5 32 -1e+37 1e+37 0 0 empty \$0-centroid-graph empty
0 -8 0 32 -262144 -1 -1 5152.14 256;
#X obj 501 272 nbx 5 32 -1e+37 1e+37 0 0 empty \$0-flatness-graph empty
0 -8 0 32 -262144 -1 -1 0.354281 256;
#X obj 731 272 nbx 5 32 -1e+37 1e+37 0 0 empty \$0-flux-graph empty
0 -8 0 32 -262144 -1 -1 0.513308 256;
#X text 269 252 Centroid;
#X text 499 252 Flatness;
#X text 729 252 Flux;
#X obj 41 362 nbx 5 32 -1e+37 1e+37 0 0 empty \$0-kurtosis-graph empty
0 -8 0 32 -262144 -1 -1 2.74334 256;
#X obj 271 362 nbx 5 32 -1e+37 1e+37 0 0 empty \$0-rolloff-graph empty
0 -8 0 32 -262144 -1 -1 11886.3 256;
#X obj 501 362 nbx 5 32 -1e+37 1e+37 0 0 empty \$0-skewness-graph empty
0 -8 0 32 -262144 -1 -1 0.953533 256;
#X obj 731 362 nbx 5 32 -1e+37 1e+37 0 0 empty \$0-spread-graph empty
0 -8 0 32 -262144 -1 -1 5317.86 256;
#X text 39 342 Kurtosis;
#X text 269 342 Rolloff;
#X text 499 342 Skewness;
#X text 729 342 Spread;
#X obj 41 452 nbx 5 32 -1e+37 1e+37 0 0 empty \$0-zeroCrossing-graph
empty 0 -8 0 32 -262144 -1 -1 160 256;
#X text 39 432 Zero-crossing;
#N canvas 64 28 1219 820 analyses 0;
#X obj 47 174 list prepend 0;
#X obj 47 197 s \$0-magSpec-graph;
#X obj 297 174 list prepend 0;
#X obj 547 174 list prepend 0;
#X obj 547 197 s \$0-bfcc-graph;
#X obj 297 197 s \$0-barkSpec-graph;
#X obj 831 124 list prepend 0;
#X obj 47 757 s \$0-zeroCrossing-graph;
#X obj 317 757 s \$0-irreg-graph;
#X obj 47 560 s \$0-kurtosis-graph;
#X obj 307 560 s \$0-rolloff-graph;
#X obj 557 560 s \$0-skewness-graph;
#X obj 767 560 s \$0-spread-graph;
#X obj 831 147 s \$0-cepstrum-graph;
#X obj 787 367 s \$0-flux-graph;
#X obj 547 367 s \$0-flatness-graph;
#X obj 297 367 s \$0-centroid-graph;
#X obj 47 367 s \$0-brightness-graph;
#X obj 976 532 adc~;
#X obj 976 555 s~ \$0-input-signal;
#X obj 47 151 magSpec~ 2048;
#X obj 47 122 r~ \$0-input-signal;
#X obj 297 122 r~ \$0-input-signal;
#X obj 547 102 r~ \$0-input-signal;
#X obj 807 42 r~ \$0-input-signal;
#X obj 47 312 r~ \$0-input-signal;
#X obj 297 312 r~ \$0-input-signal;
#X obj 547 292 r~ \$0-input-signal;
#X obj 797 292 r~ \$0-input-signal;
#X obj 47 502 r~ \$0-input-signal;
#X obj 297 502 r~ \$0-input-signal;
#X obj 547 482 r~ \$0-input-signal;
#X obj 797 482 r~ \$0-input-signal;
#X obj 47 692 r~ \$0-input-signal;
#X obj 297 692 r~ \$0-input-signal;
#X obj 807 69 cepstrum~ 2048;
#X obj 787 341 specFlux~ 2048;
#X obj 547 341 specFlatness~ 2048;
#X obj 297 341 specCentroid~ 2048;
#X obj 47 341 specBrightness~ 2048;
#X obj 47 531 specKurtosis~ 2048;
#X obj 307 531 specRolloff~ 2048;
#X obj 557 531 specSkewness~ 2048;
#X obj 767 531 specSpread~ 2048;
#X obj 317 731 specIrregularity~ 2048;
#X obj 47 731 zeroCrossing~ 2048;
#X obj 907 612 loadbang;
#X obj 815 682 metro 23.22;
#X obj 815 706 s \$0-analysis-tick;
#X obj 778 664 tgl 15 0 empty empty empty 17 7 0 10 -262144 -1 -1 0
1;
#X obj 115 90 r \$0-analysis-tick;
#X obj 345 90 r \$0-analysis-tick;
#X obj 595 70 r \$0-analysis-tick;
#X obj 835 10 r \$0-analysis-tick;
#X obj 115 270 r \$0-analysis-tick;
#X obj 345 270 r \$0-analysis-tick;
#X obj 595 250 r \$0-analysis-tick;
#X obj 825 250 r \$0-analysis-tick;
#X obj 345 460 r \$0-analysis-tick;
#X obj 595 440 r \$0-analysis-tick;
#X obj 825 440 r \$0-analysis-tick;
#X obj 75 640 r \$0-analysis-tick;
#X obj 305 640 r \$0-analysis-tick;
#X obj 115 460 r \$0-analysis-tick;
#X msg 968 675 \; pd dsp 1 \;;
#X obj 297 151 barkSpec~ 2048 0.5;
#X obj 547 151 bfcc~ 2048 0.5;
#X obj 807 94 t b l;
#X msg 784 184 clip -0.6 1;
#X obj 784 209 tabletool \$0-cepstrum-graph;
#X connect 0 0 1 0;
#X connect 2 0 5 0;
#X connect 3 0 4 0;
#X connect 6 0 13 0;
#X connect 18 0 19 0;
#X connect 20 0 0 0;
#X connect 21 0 20 0;
#X connect 22 0 65 0;
#X connect 23 0 66 0;
#X connect 24 0 35 0;
#X connect 25 0 39 0;
#X connect 26 0 38 0;
#X connect 27 0 37 0;
#X connect 28 0 36 0;
#X connect 29 0 40 0;
#X connect 30 0 41 0;
#X connect 31 0 42 0;
#X connect 32 0 43 0;
#X connect 33 0 45 0;
#X connect 34 0 44 0;
#X connect 35 0 67 0;
#X connect 36 0 14 0;
#X connect 37 0 15 0;
#X connect 38 0 16 0;
#X connect 39 0 17 0;
#X connect 40 0 9 0;
#X connect 41 0 10 0;
#X connect 42 0 11 0;
#X connect 43 0 12 0;
#X connect 44 0 8 0;
#X connect 45 0 7 0;
#X connect 46 0 47 0;
#X connect 46 0 64 0;
#X connect 47 0 48 0;
#X connect 49 0 47 0;
#X connect 50 0 20 0;
#X connect 51 0 65 0;
#X connect 52 0 66 0;
#X connect 53 0 35 0;
#X connect 54 0 39 0;
#X connect 55 0 38 0;
#X connect 56 0 37 0;
#X connect 57 0 36 0;
#X connect 58 0 41 0;
#X connect 59 0 42 0;
#X connect 60 0 43 0;
#X connect 61 0 45 0;
#X connect 62 0 44 0;
#X connect 63 0 40 0;
#X connect 65 0 2 0;
#X connect 66 0 3 0;
#X connect 67 0 68 0;
#X connect 67 1 6 0;
#X connect 68 0 69 0;
#X restore 533 447 pd analyses;
#X obj 3 4 cnv 10 400 10 empty empty empty 20 12 0 14 -233017 -66577
0;
#X obj 3 4 cnv 10 10 400 empty empty empty 20 12 0 14 -233017 -66577
0;
#X text 269 432 Irregularity;
#X obj 271 452 nbx 5 32 -1e+37 1e+37 0 0 empty \$0-irreg-graph empty
0 -8 0 32 -262144 -1 -1 0.396769 256;
