#N canvas 347 101 695 724 10;
#X msg 295 301 1;
#X msg 327 301 0;
#X obj 223 161 inlet~;
#X obj 295 214 inlet;
#N canvas 202 86 913 599 graph 0;
#N canvas 0 22 450 300 (subpatch) 0;
#X array \$0-graph 500 float 0;
#X coords 0 1 499 -1 700 500 1 0 0;
#X restore 98 35 graph;
#X restore 82 317 pd graph;
#X obj 292 588 list prepend 0;
#X obj 223 666 outlet;
#X obj 223 483 bfcc~ 1024 0.5;
#X obj 346 391 f;
#X obj 376 391 + 1;
#X msg 375 362 0;
#X obj 295 363 t b b;
#X obj 2 1 cnv 10 400 10 empty empty empty 20 12 0 14 -233017 -66577
0;
#X obj 2 1 cnv 10 10 400 empty empty empty 20 12 0 14 -233017 -66577
0;
#X text 294 196 Onset report from bonk~ or bark~;
#X obj 295 341 metro 5;
#X text 37 165 Connect an input signal to this subpatch in the parent
window to try it out. The feature vector is graphed in real time in
the graph subpatch below. Notice how consistent BFCCs are in terms
of shape over all 10 frames., f 27;
#X obj 223 522 featureAccum 10 50 0;
#X obj 292 612 s \$0-graph;
#X obj 375 334 t b b;
#X obj 375 312 select 9;
#X text 432 352 Open the floodgate for metro and make sure to shut
it off after 10 snapshots are taken. This creates 10 snapshots spaced
5ms apart in time. Take fewer or more snapshots with different spacing
based on your specific needs., f 28;
#X text 383 515 This accumulates the list of feature data as it is
banged out successively., f 39;
#X text 38 28 Identifying timbre based on a single analysis snapshot
taken after an attack is not the best approach for every situation.
Since timbre varies over time \, it makes sense to have an analysis
strategy that captures that information. Here \, 10 successive analysis
frames result in 10 BFCC analyses spaced apart by 5ms. This works extremely
well with some sound sets \, and is much more accurate than attempting
to classify with a single analysis taken immediately after an attack.
;
#X connect 0 0 15 0;
#X connect 1 0 15 0;
#X connect 2 0 7 0;
#X connect 3 0 0 0;
#X connect 5 0 18 0;
#X connect 7 0 17 0;
#X connect 8 0 9 0;
#X connect 8 0 20 0;
#X connect 9 0 8 1;
#X connect 10 0 8 1;
#X connect 11 0 7 0;
#X connect 11 1 8 0;
#X connect 15 0 11 0;
#X connect 17 0 5 0;
#X connect 17 0 6 0;
#X connect 19 0 10 0;
#X connect 19 1 1 0;
#X connect 20 0 19 0;
