#N canvas 105 55 989 690 12;
#N canvas 0 22 450 300 (subpatch) 0;
#X array mag-spec-graph 1025 float 0;
#X coords 0 0.25 1024 0 200 140 1 0 0;
#X restore 271 99 graph;
#N canvas 0 22 450 300 (subpatch) 0;
#X array barkspec-graph 50 float 0;
#X coords 0 1 49 0 200 140 1 0 0;
#X restore 501 99 graph;
#N canvas 0 22 450 300 (subpatch) 0;
#X array bfcc-graph 50 float 0;
#X coords 0 1 49 -1 200 140 1 0 0;
#X restore 501 309 graph;
#N canvas 0 22 450 300 (subpatch) 0;
#X array cepstrum-graph 1025 float 0;
#X coords 0 1 1024 -0.6 200 140 1 0 0;
#X restore 41 309 graph;
#X obj 3 4 cnv 10 400 10 empty empty empty 20 12 0 14 -233017 -66577
0;
#X obj 3 4 cnv 10 10 400 empty empty empty 20 12 0 14 -233017 -66577
0;
#N canvas 0 22 450 300 (subpatch) 0;
#X array dct-graph 2048 float 0;
#X coords 0 1 2047 -1 200 140 1 0 0;
#X restore 271 309 graph;
#N canvas 68 197 547 541 time-domain-features 0;
#X obj 41 332 nbx 5 32 -1e+37 1e+37 0 0 empty zero-crossing-display
empty 0 -8 0 32 -262144 -1 -1 394 256;
#X text 39 312 Zero-crossing;
#X obj 271 172 nbx 6 32 -1e+37 1e+37 0 0 empty max-sample-display empty
0 -8 0 32 -262144 -1 -1 0.00123776 256;
#X text 269 152 Max sample;
#X obj 41 172 nbx 6 32 -1e+37 1e+37 0 0 empty min-sample-display empty
0 -8 0 32 -262144 -1 -1 -0.000983665 256;
#X text 39 152 Min sample;
#X text 39 42 TIME DOMAIN FEATURES:;
#X obj 41 92 nbx 5 32 -1e+37 1e+37 0 0 empty peak-sample-display empty
0 -8 0 32 -262144 -1 -1 0.00123776 256;
#X text 39 72 Peak sample;
#X obj 271 232 nbx 6 32 -1e+37 1e+37 0 0 empty max-sample-delta-display
empty 0 -8 0 32 -262144 -1 -1 0.000674188 256;
#X obj 41 232 nbx 6 32 -1e+37 1e+37 0 0 empty min-sample-delta-display
empty 0 -8 0 32 -262144 -1 -1 7.58446e-08 256;
#X text 269 212 Max sample delta;
#X text 39 212 Min sample delta;
#X obj 41 422 nbx 6 32 -1e+37 1e+37 0 0 empty wave-slope-display empty
0 -8 0 32 -262144 -1 -1 8.36927e-06 256;
#X text 39 402 Waveform slope;
#N canvas 683 32 565 665 time-domain-analyses 0;
#X obj 277 482 r~ input-signal;
#X obj 277 541 zeroCrossing~ 2048;
#X obj 295 510 r analysis-tick;
#X obj 27 32 r~ input-signal;
#X obj 45 60 r analysis-tick;
#X obj 277 567 s zero-crossing-display;
#X obj 267 32 r~ input-signal;
#X obj 285 60 r analysis-tick;
#X obj 267 91 peakSample~ 2048;
#X obj 267 117 s peak-sample-display;
#X obj 27 91 sampleBuffer~ 2048;
#X obj 27 117 list prepend 0;
#X obj 27 142 s sample-buffer-graph;
#X obj 27 482 r~ input-signal;
#X obj 45 510 r analysis-tick;
#X obj 27 541 waveSlope~ 2048;
#N canvas 408 291 635 296 graph-slope 0;
#X obj 54 31 inlet;
#X msg 458 138 1;
#X obj 323 123 / 2;
#X obj 323 91 t f b;
#X obj 83 91 t f b;
#X obj 83 123 / -2;
#X msg 218 138 0;
#X obj 83 163 tabwrite wave-slope-graph;
#X obj 323 163 tabwrite wave-slope-graph;
#X obj 54 206 s wave-slope-display;
#X connect 0 0 4 0;
#X connect 0 0 3 0;
#X connect 0 0 9 0;
#X connect 1 0 8 1;
#X connect 2 0 8 0;
#X connect 3 0 2 0;
#X connect 3 1 1 0;
#X connect 4 0 5 0;
#X connect 4 1 6 0;
#X connect 5 0 7 0;
#X connect 6 0 7 1;
#X coords 0 296 1 295 250 70 0;
#X restore 27 571 pd graph-slope;
#X obj 27 192 r~ input-signal;
#X obj 45 220 r analysis-tick;
#X obj 267 192 r~ input-signal;
#X obj 285 220 r analysis-tick;
#X obj 27 251 minSample~ 2048;
#X obj 27 277 s min-sample-display;
#X obj 267 251 maxSample~ 2048;
#X obj 267 277 s max-sample-display;
#X obj 27 342 r~ input-signal;
#X obj 45 370 r analysis-tick;
#X obj 267 342 r~ input-signal;
#X obj 285 370 r analysis-tick;
#X obj 27 401 minSampleDelta~ 2048;
#X obj 267 401 maxSampleDelta~ 2048;
#X obj 267 427 s max-sample-delta-display;
#X obj 27 427 s min-sample-delta-display;
#X connect 0 0 1 0;
#X connect 1 0 5 0;
#X connect 2 0 1 0;
#X connect 3 0 10 0;
#X connect 4 0 10 0;
#X connect 6 0 8 0;
#X connect 7 0 8 0;
#X connect 8 0 9 0;
#X connect 10 0 11 0;
#X connect 11 0 12 0;
#X connect 13 0 15 0;
#X connect 14 0 15 0;
#X connect 15 0 16 0;
#X connect 17 0 21 0;
#X connect 18 0 21 0;
#X connect 19 0 23 0;
#X connect 20 0 23 0;
#X connect 21 0 22 0;
#X connect 23 0 24 0;
#X connect 25 0 29 0;
#X connect 26 0 29 0;
#X connect 27 0 30 0;
#X connect 28 0 30 0;
#X connect 29 0 32 0;
#X connect 30 0 31 0;
#X restore 271 92 pd time-domain-analyses;
#N canvas 0 50 450 278 (subpatch) 0;
#X array wave-slope-graph 2 float 1;
#A 0 -4.18463e-06 4.18463e-06;
#X coords 0 0.1 1 -0.1 200 140 1 0 0;
#X restore 271 332 graph;
#X restore 41 499 pd time-domain-features;
#N canvas 0 22 450 300 (subpatch) 0;
#X array sample-buffer-graph 2048 float 0;
#X coords 0 1 2047 -1 200 140 1 0 0;
#X restore 41 99 graph;
#N canvas 75 174 947 428 spectrum-features 0;
#X obj 39 83 nbx 5 32 -1e+37 1e+37 0 0 empty brightness-display empty
0 -8 0 32 -262144 -1 -1 0.753822 256;
#X text 37 63 Brightness;
#X obj 259 83 nbx 5 32 -1e+37 1e+37 0 0 empty centroid-display empty
0 -8 0 32 -262144 -1 -1 7009.13 256;
#X obj 479 83 nbx 5 32 -1e+37 1e+37 0 0 empty flatness-display empty
0 -8 0 32 -262144 -1 -1 0.457819 256;
#X obj 719 83 nbx 5 32 -1e+37 1e+37 0 0 empty flux-display empty 0
-8 0 32 -262144 -1 -1 0.598826 256;
#X text 257 63 Centroid;
#X text 477 63 Flatness;
#X text 717 63 Flux;
#X obj 719 173 nbx 5 32 -1e+37 1e+37 0 0 empty kurtosis-display empty
0 -8 0 32 -262144 -1 -1 1.94331 256;
#X obj 39 263 nbx 5 32 -1e+37 1e+37 0 0 empty rolloff-display empty
0 -8 0 32 -262144 -1 -1 14534.9 256;
#X obj 259 263 nbx 5 32 -1e+37 1e+37 0 0 empty skewness-display empty
0 -8 0 32 -262144 -1 -1 0.452605 256;
#X obj 719 263 nbx 5 32 -1e+37 1e+37 0 0 empty spread-display empty
0 -8 0 32 -262144 -1 -1 5813.42 256;
#X text 717 153 Kurtosis;
#X text 37 243 Rolloff;
#X text 257 243 Skewness;
#X text 717 243 Spread;
#X text 477 153 Irregularity;
#X obj 479 173 nbx 5 32 -1e+37 1e+37 0 0 empty irreg-display empty
0 -8 0 32 -262144 -1 -1 0.314578 256;
#X obj 479 263 nbx 7 32 -1e+37 1e+37 0 0 empty spec-slope-display empty
0 -8 0 32 -262144 -1 -1 -0.00213014 256;
#X text 477 243 Slope;
#X text 37 33 SPECTRUM FEATURES:;
#X obj 259 173 nbx 5 32 -1e+37 1e+37 0 0 empty inharmonicity-display
empty 0 -8 0 32 -262144 -1 -1 0.34648 256;
#X obj 39 173 nbx 5 32 -1e+37 1e+37 0 0 empty harmonicity-display empty
0 -8 0 32 -262144 -1 -1 0.555555 256;
#X text 37 153 Harmonicity;
#X text 257 153 Inharmonicity;
#N canvas 320 83 1027 596 spectrum-analyses 0;
#X obj 335 440 r analysis-tick;
#X obj 815 440 r analysis-tick;
#X obj 47 52 r~ input-signal;
#X obj 297 52 r~ input-signal;
#X obj 547 52 r~ input-signal;
#X obj 787 52 r~ input-signal;
#X obj 777 242 r~ input-signal;
#X obj 47 412 r~ input-signal;
#X obj 297 412 r~ input-signal;
#X obj 777 412 r~ input-signal;
#X obj 547 242 r~ input-signal;
#X obj 787 121 specFlux~ 2048;
#X obj 547 121 specFlatness~ 2048;
#X obj 297 121 specCentroid~ 2048;
#X obj 47 121 specBrightness~ 2048;
#X obj 777 311 specKurtosis~ 2048;
#X obj 47 481 specRolloff~ 2048;
#X obj 297 481 specSkewness~ 2048;
#X obj 777 481 specSpread~ 2048;
#X obj 547 312 specIrregularity~ 2048;
#X obj 95 80 r analysis-tick;
#X obj 345 80 r analysis-tick;
#X obj 595 80 r analysis-tick;
#X obj 825 80 r analysis-tick;
#X obj 85 440 r analysis-tick;
#X obj 587 272 r analysis-tick;
#X obj 825 270 r analysis-tick;
#X obj 47 147 s brightness-display;
#X obj 297 147 s centroid-display;
#X obj 547 147 s flatness-display;
#X obj 787 147 s flux-display;
#X obj 777 340 s kurtosis-display;
#X obj 47 242 r~ input-signal;
#X obj 87 272 r analysis-tick;
#X obj 47 312 specHarmonicity~ 2048;
#X obj 47 338 s harmonicity-display;
#X obj 297 340 s inharmonicity-display;
#X obj 547 338 s irreg-display;
#X obj 585 440 r analysis-tick;
#X obj 547 412 r~ input-signal;
#X obj 777 510 s spread-display;
#X obj 297 510 s skewness-display;
#X obj 47 510 s rolloff-display;
#X obj 547 481 specSlope~ 2048;
#X obj 547 511 s spec-slope-display;
#X connect 0 0 17 0;
#X connect 1 0 18 0;
#X connect 2 0 14 0;
#X connect 3 0 13 0;
#X connect 4 0 12 0;
#X connect 5 0 11 0;
#X connect 6 0 15 0;
#X connect 7 0 16 0;
#X connect 8 0 17 0;
#X connect 9 0 18 0;
#X connect 10 0 19 0;
#X connect 11 0 30 0;
#X connect 12 0 29 0;
#X connect 13 0 28 0;
#X connect 14 0 27 0;
#X connect 15 0 31 0;
#X connect 16 0 42 0;
#X connect 17 0 41 0;
#X connect 18 0 40 0;
#X connect 19 0 37 0;
#X connect 20 0 14 0;
#X connect 21 0 13 0;
#X connect 22 0 12 0;
#X connect 23 0 11 0;
#X connect 24 0 16 0;
#X connect 25 0 19 0;
#X connect 26 0 15 0;
#X connect 32 0 34 0;
#X connect 33 0 34 0;
#X connect 34 0 35 0;
#X connect 34 1 36 0;
#X connect 38 0 43 0;
#X connect 39 0 43 0;
#X connect 43 0 44 0;
#X restore 39 343 pd spectrum-analyses;
#X restore 41 529 pd spectrum-features;
#N canvas 655 104 612 301 init 0;
#X obj 236 145 s~ input-signal;
#X obj 45 62 loadbang;
#X obj 410 206 metro 23.22;
#X obj 410 230 s analysis-tick;
#X msg 45 235 \; pd dsp 1 \;;
#X obj 45 87 t b b b b;
#X obj 135 127 s lb1;
#X obj 115 157 s lb2;
#X obj 95 187 s lb3;
#X obj 410 176 r lb3;
#X obj 236 82 adc~;
#X obj 236 107 hip~ 5;
#X connect 1 0 5 0;
#X connect 2 0 3 0;
#X connect 5 0 4 0;
#X connect 5 1 8 0;
#X connect 5 2 7 0;
#X connect 5 3 6 0;
#X connect 9 0 2 0;
#X connect 10 0 11 0;
#X connect 11 0 0 0;
#X restore 41 469 pd init;
#N canvas 216 108 1006 560 multi-dimensional-feature-analyses 0;
#X obj 57 164 list prepend 0;
#X obj 57 187 s mag-spec-graph;
#X obj 317 164 list prepend 0;
#X obj 557 364 list prepend 0;
#X obj 557 387 s bfcc-graph;
#X obj 317 187 s barkspec-graph;
#X obj 127 396 list prepend 0;
#X obj 127 419 s cepstrum-graph;
#X obj 57 141 magSpec~ 2048;
#X obj 57 72 r~ input-signal;
#X obj 317 72 r~ input-signal;
#X obj 557 272 r~ input-signal;
#X obj 57 272 r~ input-signal;
#X obj 557 341 bfcc~ 2048 0.25;
#X obj 57 341 cepstrum~ 2048;
#X obj 125 100 r analysis-tick;
#X obj 365 100 r analysis-tick;
#X obj 605 300 r analysis-tick;
#X obj 85 300 r analysis-tick;
#X obj 317 141 barkSpec~ 2048 0.5;
#X obj 57 366 t b l;
#X msg 57 453 clip -0.6 1;
#X obj 57 478 tabletool cepstrum-graph;
#X obj 317 364 list prepend 0;
#X obj 317 272 r~ input-signal;
#X obj 365 300 r analysis-tick;
#X obj 317 387 s dct-graph;
#X obj 317 341 dct~ 2048;
#X obj 557 164 list prepend 0;
#X obj 557 72 r~ input-signal;
#X obj 605 100 r analysis-tick;
#X obj 557 187 s melspec-graph;
#X obj 557 141 melSpec~ 2048;
#X obj 777 364 list prepend 0;
#X obj 777 272 r~ input-signal;
#X obj 825 300 r analysis-tick;
#X obj 777 341 mfcc~ 2048;
#X obj 777 387 s mfcc-graph;
#X connect 0 0 1 0;
#X connect 2 0 5 0;
#X connect 3 0 4 0;
#X connect 6 0 7 0;
#X connect 8 0 0 0;
#X connect 9 0 8 0;
#X connect 10 0 19 0;
#X connect 11 0 13 0;
#X connect 12 0 14 0;
#X connect 13 0 3 0;
#X connect 14 0 20 0;
#X connect 15 0 8 0;
#X connect 16 0 19 0;
#X connect 17 0 13 0;
#X connect 18 0 14 0;
#X connect 19 0 2 0;
#X connect 20 0 21 0;
#X connect 20 1 6 0;
#X connect 21 0 22 0;
#X connect 23 0 26 0;
#X connect 24 0 27 0;
#X connect 25 0 27 0;
#X connect 27 0 23 0;
#X connect 28 0 31 0;
#X connect 29 0 32 0;
#X connect 30 0 32 0;
#X connect 32 0 28 0;
#X connect 33 0 37 0;
#X connect 34 0 36 0;
#X connect 35 0 36 0;
#X connect 36 0 33 0;
#X restore 41 249 pd multi-dimensional-feature-analyses;
#X text 39 33 MULTI-DIMENSIONAL FEATURES:;
#X text 698 636 timbreID - William Brent 2017;
#N canvas 53 154 947 428 Bark-spectrum-features 0;
#X obj 39 83 nbx 5 32 -1e+37 1e+37 0 0 empty bark-brightness-display
empty 0 -8 0 32 -262144 -1 -1 0.753573 256;
#X text 37 63 Brightness;
#X obj 259 83 nbx 5 32 -1e+37 1e+37 0 0 empty bark-centroid-display
empty 0 -8 0 32 -262144 -1 -1 15.006 256;
#X obj 479 83 nbx 5 32 -1e+37 1e+37 0 0 empty bark-flatness-display
empty 0 -8 0 32 -262144 -1 -1 0.85179 256;
#X obj 719 83 nbx 5 32 -1e+37 1e+37 0 0 empty bark-flux-display empty
0 -8 0 32 -262144 -1 -1 0.257635 256;
#X text 257 63 Centroid;
#X text 477 63 Flatness;
#X text 717 63 Flux;
#X obj 259 173 nbx 5 32 -1e+37 1e+37 0 0 empty bark-kurtosis-display
empty 0 -8 0 32 -262144 -1 -1 2.01783 256;
#X obj 479 173 nbx 5 32 -1e+37 1e+37 0 0 empty bark-rolloff-display
empty 0 -8 0 32 -262144 -1 -1 22.5 256;
#X obj 719 173 nbx 5 32 -1e+37 1e+37 0 0 empty bark-skewness-display
empty 0 -8 0 32 -262144 -1 -1 -0.630599 256;
#X obj 479 263 nbx 5 32 -1e+37 1e+37 0 0 empty bark-spread-display
empty 0 -8 0 32 -262144 -1 -1 7.6455 256;
#X text 257 153 Kurtosis;
#X text 477 153 Rolloff;
#X text 717 153 Skewness;
#X text 477 243 Spread;
#X text 37 153 Irregularity;
#X obj 39 173 nbx 5 32 -1e+37 1e+37 0 0 empty bark-irreg-display empty
0 -8 0 32 -262144 -1 -1 0.0733123 256;
#X obj 39 263 nbx 7 32 -1e+37 1e+37 0 0 empty bark-spec-slope-display
empty 0 -8 0 32 -262144 -1 -1 0.0264683 256;
#X text 37 243 Slope;
#X text 37 33 BARK SPECTRUM FEATURES:;
#N canvas 320 83 1027 596 bark-spectrum-analyses 0;
#X obj 835 270 r analysis-tick;
#X obj 315 440 r analysis-tick;
#X obj 47 52 r~ input-signal;
#X obj 297 52 r~ input-signal;
#X obj 547 52 r~ input-signal;
#X obj 787 52 r~ input-signal;
#X obj 277 242 r~ input-signal;
#X obj 547 242 r~ input-signal;
#X obj 797 242 r~ input-signal;
#X obj 277 412 r~ input-signal;
#X obj 47 242 r~ input-signal;
#X obj 95 80 r analysis-tick;
#X obj 345 80 r analysis-tick;
#X obj 595 80 r analysis-tick;
#X obj 825 80 r analysis-tick;
#X obj 585 270 r analysis-tick;
#X obj 87 272 r analysis-tick;
#X obj 325 270 r analysis-tick;
#X obj 85 440 r analysis-tick;
#X obj 47 412 r~ input-signal;
#X obj 47 121 barkSpecBrightness~ 2048;
#X obj 297 121 barkSpecCentroid~ 2048;
#X obj 547 121 barkSpecFlatness~ 2048;
#X obj 787 121 barkSpecFlux~ 2048;
#X obj 277 311 barkSpecKurtosis~ 2048;
#X obj 47 312 barkSpecIrregularity~ 2048;
#X obj 547 311 barkSpecRolloff~ 2048;
#X obj 797 311 barkSpecSkewness~ 2048;
#X obj 47 481 barkSpecSlope~ 2048;
#X obj 277 481 barkSpecSpread~ 2048;
#X obj 47 147 s bark-brightness-display;
#X obj 297 147 s bark-centroid-display;
#X obj 547 147 s bark-flatness-display;
#X obj 787 147 s bark-flux-display;
#X obj 277 340 s bark-kurtosis-display;
#X obj 47 338 s bark-irreg-display;
#X obj 277 510 s bark-spread-display;
#X obj 47 510 s bark-spec-slope-display;
#X obj 797 340 s bark-skewness-display;
#X obj 547 340 s bark-rolloff-display;
#X connect 0 0 27 0;
#X connect 1 0 29 0;
#X connect 2 0 20 0;
#X connect 3 0 21 0;
#X connect 4 0 22 0;
#X connect 5 0 23 0;
#X connect 6 0 24 0;
#X connect 7 0 26 0;
#X connect 8 0 27 0;
#X connect 9 0 29 0;
#X connect 10 0 25 0;
#X connect 11 0 20 0;
#X connect 12 0 21 0;
#X connect 13 0 22 0;
#X connect 14 0 23 0;
#X connect 15 0 26 0;
#X connect 16 0 25 0;
#X connect 17 0 24 0;
#X connect 18 0 28 0;
#X connect 19 0 28 0;
#X connect 20 0 30 0;
#X connect 21 0 31 0;
#X connect 22 0 32 0;
#X connect 23 0 33 0;
#X connect 24 0 34 0;
#X connect 25 0 35 0;
#X connect 26 0 39 0;
#X connect 27 0 38 0;
#X connect 28 0 37 0;
#X connect 29 0 36 0;
#X restore 39 343 pd bark-spectrum-analyses;
#X restore 41 559 pd Bark-spectrum-features;
#N canvas 0 22 450 300 (subpatch) 0;
#X array melspec-graph 38 float 0;
#X coords 0 1 37 0 200 140 1 0 0;
#X restore 731 99 graph;
#N canvas 0 22 450 300 (subpatch) 0;
#X array mfcc-graph 38 float 0;
#X coords 0 1 37 -1 200 140 1 0 0;
#X restore 731 309 graph;
#X text 389 494 This patch shows all of the real-time features available
in timbreID 0.7. In addition to the multi-dimensional features shown
at this top level \, each subpatch displays the various low-level (single
number) features \, broken down into four categories.;
#N canvas 727 93 594 332 sound-event-features 0;
#X obj 113 109 nbx 5 32 -1e+37 1e+37 0 0 empty attack-time-display
empty 0 -8 0 32 -262144 -1 -1 5.17007 256;
#X text 111 89 Attack Time;
#X obj 43 109 bng 32 250 50 0 empty onset-display empty 17 7 0 10 -262144
-1 -1;
#X text 41 89 Onset;
#X obj 323 109 nbx 5 32 -1e+37 1e+37 0 0 empty ceps-pitch-display empty
0 -8 0 32 -262144 -1 -1 36.8754 256;
#X text 321 89 Cepstrum pitch;
#X obj 323 179 nbx 5 32 -1e+37 1e+37 0 0 empty sigmund-pitch-display
empty 0 -8 0 32 -262144 -1 -1 -1500 256;
#X text 321 159 sigmund~ pitch;
#X obj 113 179 nbx 5 32 -1e+37 1e+37 0 0 empty sigmund-env-display
empty 0 -8 0 32 -262144 -1 -1 29.4417 256;
#X text 111 159 sigmund~ env;
#X text 41 39 SOUND EVENT FEATURES:;
#N canvas 519 28 870 423 sound-event-analyses 0;
#X obj 103 39 r~ input-signal;
#X obj 103 157 bark~ 2048;
#X obj 148 255 attackTime~ 2048;
#X obj 103 313 s onset-display;
#X obj 178 80 r lb1;
#X msg 178 110 debounce 500 \, thresh -1 20 \, minvel 10;
#X obj 148 280 s attack-time-display;
#X msg 178 220 onset_samp_mag_thresh 0.0025;
#X obj 178 190 r lb1;
#X obj 533 39 r~ input-signal;
#X obj 533 153 s ceps-pitch-display;
#X obj 533 117 cepstrumPitch~ 2048;
#X obj 563 69 r analysis-tick;
#X obj 533 219 r~ input-signal;
#X obj 533 363 s sigmund-pitch-display;
#X obj 653 333 s sigmund-env-display;
#X obj 533 297 sigmund~ -npts 2048 pitch env;
#X connect 0 0 1 0;
#X connect 0 0 2 0;
#X connect 1 0 2 0;
#X connect 1 0 3 0;
#X connect 2 0 6 0;
#X connect 4 0 5 0;
#X connect 5 0 1 0;
#X connect 7 0 2 0;
#X connect 8 0 7 0;
#X connect 9 0 11 0;
#X connect 11 0 10 0;
#X connect 12 0 11 0;
#X connect 13 0 16 0;
#X connect 16 0 14 0;
#X connect 16 1 15 0;
#X restore 43 269 pd sound-event-analyses;
#X restore 41 589 pd sound-event-features;
