#N canvas 634 182 326 296 10;
#X obj 29 115 *~;
#X obj 29 137 dac~;
#X obj 107 102 moses 41;
#X obj 107 124 t b;
#X msg 107 146 0;
#X obj 107 168 dbtorms;
#X obj 107 190 pack f 40;
#X obj 107 212 line~;
#X obj 29 27 inlet~;
#X obj 110 59 hsl 128 15 40 100 0 0 empty master-volume-set master-volume
8 8 0 12 -262144 -1 -1 0 1;
#X floatatom 247 59 5 0 0 1 dB - -, f 5;
#X connect 0 0 1 0;
#X connect 0 0 1 1;
#X connect 2 0 3 0;
#X connect 2 1 5 0;
#X connect 2 1 10 0;
#X connect 3 0 4 0;
#X connect 4 0 5 0;
#X connect 4 0 10 0;
#X connect 5 0 6 0;
#X connect 6 0 7 0;
#X connect 7 0 0 1;
#X connect 8 0 0 0;
#X connect 9 0 2 0;
#X coords 0 -1 1 1 200 40 1 100 40;
