#N canvas 387 100 777 537 10;
#X declare -path ../lib;
#X obj 128 199 specCentroid~ 2048;
#X obj 63 328 vcf~ 10;
#X obj 185 117 loadbang;
#X obj 63 136 readsf~;
#X msg 98 90 stop;
#X obj 5 4 cnv 10 400 10 empty empty empty 20 12 0 14 -233017 -66577
0;
#X obj 5 4 cnv 10 10 400 empty empty empty 20 12 0 14 -233017 -66577
0;
#X obj 128 292 line~;
#X obj 128 250 min 10000;
#X text 338 239 Of course \, the most varied and interesting results
are achieved by using timbre features to control several sound parameters
at once. You may want centroid to control center frequency \, while
spectral spread controls Q \, and zero crossing rate controls parameters
of additional effects (like the LFO speed of a flanger). The more parameters
your patch has \, the more timbre features you can put to use.;
#X text 338 39 The most basic use of timbreID analysis objects is to
produce control values based on timbre features. Here \, we analyze
for spectral centroid in order to control the center frequency of a
band-pass filter. We're lucky that the units of specCentroid~'s outlet
are the same as those expected for the middle inlet of vcf~: Hz. If
that weren't the case \, we would just scale appropriately. This patch
gives us an effect similar to a wah-wah pedal \, with the added convenience
that it's driven automatically. The attacks of notes are brighter and
therefore have a higher centroid than the sustain. So the filter sweeps
upwards during an attack and falls downward during the sustain. We
ignore any centroid reports above 10kHz \, and smooth the changes out
with a line~.;
#X msg 63 56 open ../audio/guitar.wav \, start;
#X obj 63 350 vcf~ 10;
#X obj 63 461 volume~;
#X obj 147 226 hsl 128 15 250 10000 1 0 empty empty empty -2 -8 0 10
-262144 -1 -1 0 1;
#X obj 63 403 *~ 7;
#X obj 185 139 metro 10;
#X text 104 398 << some make-up gain to compensate for gain loss after
filtering, f 34;
#X obj 128 271 pack f 20;
#N canvas 717 418 462 194 init 0;
#X obj 75 44 loadbang;
#X obj 217 46 declare -path ../lib;
#X msg 75 96 \; master-volume-set 90 \;;
#X connect 0 0 2 0;
#X restore 650 417 pd init;
#X text 518 476 timbreID - William Brent 2017;
#X connect 0 0 8 0;
#X connect 0 0 14 0;
#X connect 1 0 12 0;
#X connect 2 0 16 0;
#X connect 3 0 1 0;
#X connect 3 0 0 0;
#X connect 4 0 3 0;
#X connect 7 0 1 1;
#X connect 7 0 12 1;
#X connect 8 0 18 0;
#X connect 11 0 3 0;
#X connect 12 0 15 0;
#X connect 15 0 13 0;
#X connect 16 0 0 0;
#X connect 18 0 7 0;
