#N canvas 139 213 693 646 10;
#X obj 71 549 *~;
#X obj 44 259 t b f;
#X obj 71 292 pack f f;
#X obj 166 20 r window-size;
#X obj 398 527 cos~;
#X obj 398 500 vline~;
#X msg 398 201 -0.25 \, 0.25 \$1;
#X obj 416 149 / 44.1;
#X obj 398 174 f;
#X msg 315 352 -0.25;
#X obj 44 22 r play-\$1;
#X obj 71 579 throw~ grain-bus;
#X obj 315 324 loadbang;
#X obj 539 84 r samplerate;
#X obj 539 106 / 1000;
#X obj 44 44 unpack f f;
#X obj 71 448 tabplay~;
#X msg 153 390 set tID-sample-\$1;
#X obj 166 41 t f f;
#X obj 448 295 tabread sample-lengths;
#X obj 428 337 / 44.1;
#X obj 428 317 f;
#X obj 431 44 swap 1;
#X obj 431 66 -;
#X obj 428 257 spigot;
#X obj 398 124 spigot;
#X obj 44 66 t f f;
#X obj 44 208 spigot;
#X obj 194 264 spigot;
#X obj 194 286 t b b;
#X obj 428 397 -;
#X obj 483 345 r full-sample-fade-time;
#X obj 443 377 * 2;
#X obj 428 441 pack f f;
#X msg 428 464 -0.25 \, 0 \$2 \, 0.25 \$2 \$1;
#X obj 461 237 r full-sample-mode;
#X obj 227 244 r full-sample-mode;
#X obj 431 24 r full-sample-mode;
#X obj 77 164 swap 1;
#X obj 77 186 -;
#X obj 77 144 r full-sample-mode;
#X obj 428 419 max 0;
#X connect 0 0 11 0;
#X connect 1 0 25 0;
#X connect 1 1 2 0;
#X connect 2 0 16 0;
#X connect 3 0 18 0;
#X connect 4 0 0 1;
#X connect 5 0 4 0;
#X connect 6 0 5 0;
#X connect 7 0 8 1;
#X connect 8 0 6 0;
#X connect 9 0 5 0;
#X connect 10 0 15 0;
#X connect 12 0 9 0;
#X connect 13 0 14 0;
#X connect 14 0 7 1;
#X connect 14 0 20 1;
#X connect 15 0 26 0;
#X connect 15 1 17 0;
#X connect 15 1 19 0;
#X connect 16 0 0 0;
#X connect 17 0 16 0;
#X connect 18 0 2 1;
#X connect 18 1 7 0;
#X connect 19 0 21 1;
#X connect 20 0 30 0;
#X connect 21 0 20 0;
#X connect 22 0 23 0;
#X connect 22 1 23 1;
#X connect 23 0 25 1;
#X connect 24 0 21 0;
#X connect 25 0 8 0;
#X connect 26 0 27 0;
#X connect 26 1 28 0;
#X connect 27 0 1 0;
#X connect 28 0 29 0;
#X connect 29 0 16 0;
#X connect 29 1 24 0;
#X connect 30 0 41 0;
#X connect 31 0 32 0;
#X connect 31 0 33 1;
#X connect 32 0 30 1;
#X connect 33 0 34 0;
#X connect 34 0 5 0;
#X connect 35 0 24 1;
#X connect 36 0 28 1;
#X connect 37 0 22 0;
#X connect 38 0 39 0;
#X connect 38 1 39 1;
#X connect 39 0 27 1;
#X connect 40 0 38 0;
#X connect 41 0 33 0;
