#N canvas 62 272 492 535 10;
#N canvas 396 92 662 418 init 0;
#X obj 70 14 loadbang;
#X obj 20 20 bng 15 250 50 0 empty empty empty 17 7 0 10 -262144 -1
-1;
#X obj 299 98 s lb1;
#X obj 268 130 s lb2;
#X obj 444 54 t b b;
#X obj 444 33 r lb1;
#X obj 444 156 s window-radio-set;
#X obj 476 108 s overlap-radio-set;
#X msg 476 87 1;
#X msg 249 178 44100;
#X obj 249 199 s samplerate;
#X msg 211 224 85;
#X obj 211 245 s master-volume-set;
#X msg 190 289 0;
#X obj 190 310 s frame-start;
#X msg 131 329 -4;
#X obj 131 350 s scrub-pos;
#X obj 70 35 t b b b b b b;
#X msg 444 135 3;
#X msg 13 304 \; pd dsp 1 \;;
#X connect 0 0 17 0;
#X connect 1 0 17 0;
#X connect 4 0 18 0;
#X connect 4 1 8 0;
#X connect 5 0 4 0;
#X connect 8 0 7 0;
#X connect 9 0 10 0;
#X connect 11 0 12 0;
#X connect 13 0 14 0;
#X connect 15 0 16 0;
#X connect 17 0 15 0;
#X connect 17 0 19 0;
#X connect 17 1 13 0;
#X connect 17 2 11 0;
#X connect 17 3 9 0;
#X connect 17 4 3 0;
#X connect 17 5 2 0;
#X connect 18 0 6 0;
#X restore 36 41 pd init;
#X obj 290 221 bng 15 250 50 0 open-sf empty open-soundfile 17 7 0
12 -4032 -1 -1;
#X obj 290 241 bng 15 250 50 0 play-sf empty play-soundfile 17 7 0
12 -4034 -1 -1;
#N canvas 59 67 567 377 gemwin 0;
#X obj 102 122 tgl 15 0 \$0-gemstart \$0-gemstart empty 17 7 0 10 -262144
-1 -1 0 1;
#X obj 102 161 r \$0-gemstart;
#X obj 102 182 select 1 0;
#X msg 102 214 create \, 1;
#X msg 177 215 destroy;
#X obj 102 239 t a;
#X obj 318 54 inlet;
#X obj 318 261 gemwin;
#X obj 318 100 t a a;
#X obj 318 287 outlet;
#X obj 350 128 route create destroy;
#X obj 350 150 t b;
#X msg 350 172 1;
#X obj 390 150 t b;
#X msg 390 172 0;
#X msg 382 216 set \$1;
#X text 118 122 rendering;
#X obj 350 195 t b f;
#X obj 350 236 s render-plot;
#X msg 136 269 0;
#X obj 136 290 s set-kbd-nav-on;
#X obj 136 310 s set-mouseover-on;
#X obj 136 330 s set-animate;
#X connect 1 0 2 0;
#X connect 2 0 3 0;
#X connect 2 1 4 0;
#X connect 2 1 19 0;
#X connect 3 0 5 0;
#X connect 4 0 5 0;
#X connect 5 0 8 0;
#X connect 6 0 8 0;
#X connect 7 0 9 0;
#X connect 8 0 7 0;
#X connect 8 1 10 0;
#X connect 10 0 11 0;
#X connect 10 1 13 0;
#X connect 11 0 12 0;
#X connect 12 0 17 0;
#X connect 13 0 14 0;
#X connect 14 0 17 0;
#X connect 15 0 0 0;
#X connect 17 1 15 0;
#X connect 19 0 20 0;
#X connect 19 0 21 0;
#X connect 19 0 22 0;
#X coords 0 -1 1 1 85 40 1 100 100;
#X restore 36 448 pd gemwin;
#N canvas 670 58 767 820 gem 0;
#X obj 194 527 gemlist;
#X obj 102 89 route gem_state;
#X obj 102 109 route float;
#X obj 194 590 translateXYZ;
#X obj 194 548 separator;
#N canvas 690 141 750 416 coords 0;
#X obj 98 304 outlet;
#X obj 341 304 outlet;
#X obj 540 255 outlet;
#X obj 98 39 inlet;
#X obj 540 32 inlet;
#X obj 341 39 inlet;
#X obj 341 168 * 8;
#X obj 341 189 - 4;
#X obj 98 160 * 8;
#X obj 98 181 - 4;
#X obj 341 136 /;
#X obj 98 129 /;
#X obj 116 92 r num-frames;
#X obj 133 256 * 4;
#X obj 133 186 r num-frames;
#X obj 98 238 +;
#X obj 376 249 * 4;
#X obj 341 231 +;
#X obj 376 200 swap 1;
#X obj 376 221 /;
#X obj 133 235 /;
#X obj 133 207 swap 1;
#X obj 540 183 /;
#X obj 604 167 r norm-scalar;
#N canvas 566 418 735 349 color-mapping 0;
#X obj 93 28 inlet;
#X obj 93 232 outlet;
#X obj 449 53 table red 46;
#X obj 449 73 table green 46;
#X obj 449 93 table blue 46;
#X obj 449 145 r lb1;
#X msg 449 166 \; red read data/colors-R-46.txt \; green read data/colors-G-46.txt
\; blue read data/colors-B-46.txt \;;
#X obj 93 49 * 45;
#X obj 93 70 t f f f;
#X obj 93 203 pack f f f;
#X obj 93 141 tabread4 red;
#X obj 193 141 tabread4 green;
#X obj 303 141 tabread4 blue;
#X connect 0 0 7 0;
#X connect 5 0 6 0;
#X connect 7 0 8 0;
#X connect 8 0 10 0;
#X connect 8 1 11 0;
#X connect 8 2 12 0;
#X connect 9 0 1 0;
#X connect 10 0 9 0;
#X connect 11 0 9 1;
#X connect 12 0 9 2;
#X restore 540 225 pd color-mapping;
#X obj 98 60 -;
#X obj 128 60 r frame-start;
#X text 169 234 <-- offset to get \; first rectangle \; flush w/left
edge;
#X obj 540 72 tabread ceps-table;
#X obj 359 109 r num-bfccs;
#X obj 376 179 r num-bfccs;
#X obj 558 116 r min-ceps;
#X obj 540 143 -;
#X connect 3 0 25 0;
#X connect 4 0 28 0;
#X connect 5 0 10 0;
#X connect 6 0 7 0;
#X connect 7 0 17 0;
#X connect 8 0 9 0;
#X connect 9 0 15 0;
#X connect 10 0 6 0;
#X connect 11 0 8 0;
#X connect 12 0 11 1;
#X connect 13 0 15 1;
#X connect 14 0 21 0;
#X connect 15 0 0 0;
#X connect 16 0 17 1;
#X connect 17 0 1 0;
#X connect 18 0 19 0;
#X connect 18 1 19 1;
#X connect 19 0 16 0;
#X connect 20 0 13 0;
#X connect 21 0 20 0;
#X connect 21 1 20 1;
#X connect 22 0 24 0;
#X connect 23 0 22 1;
#X connect 24 0 2 0;
#X connect 25 0 11 0;
#X connect 26 0 25 1;
#X connect 28 0 32 0;
#X connect 29 0 10 1;
#X connect 30 0 18 0;
#X connect 31 0 32 1;
#X connect 32 0 22 0;
#X restore 266 548 pd coords;
#X obj 176 182 t f b;
#X obj 176 209 until;
#X obj 194 611 color;
#N canvas 1212 146 228 186 reset-rendering 0;
#X msg 101 86 0;
#X msg 63 86 1;
#X obj 63 124 outlet;
#X obj 101 62 r lb1;
#X obj 19 6 r render-points;
#X obj 63 34 r render-plot;
#X connect 0 0 2 0;
#X connect 1 0 2 0;
#X connect 3 0 0 0;
#X connect 4 0 2 0;
#X connect 5 0 1 0;
#X restore 102 9 pd reset-rendering;
#X obj 102 41 gemhead 50;
#N canvas 550 89 606 375 snapshot 0;
#X obj 61 33 inlet;
#X obj 204 275 pix_texture;
#X msg 93 188 snap;
#X obj 61 159 t b b;
#X msg 61 97 clear;
#N canvas 1600 380 299 269 oneshot 0;
#X obj 30 25 inlet;
#X obj 193 89 bang;
#X msg 193 108 1;
#X obj 104 155 spigot;
#X msg 161 109 0;
#X obj 143 133 i 1;
#X obj 30 50 route clear;
#X obj 104 203 outlet;
#X obj 104 103 t b b;
#X obj 104 181 t b b;
#X connect 0 0 6 0;
#X connect 1 0 2 0;
#X connect 2 0 5 1;
#X connect 3 0 9 0;
#X connect 4 0 5 1;
#X connect 5 0 3 1;
#X connect 6 0 1 0;
#X connect 6 1 8 0;
#X connect 8 0 3 0;
#X connect 8 1 5 0;
#X connect 9 0 7 0;
#X connect 9 1 4 0;
#X restore 61 124 pd oneshot;
#X msg 61 290 0;
#X obj 204 204 pix_snap 0 0 800 800;
#X obj 61 311 s render-points;
#X obj 204 309 square 4;
#X obj 204 89 t a b;
#X obj 378 291 pix_write 0 0 800 800;
#X msg 402 197 file \$1 1;
#X obj 402 218 t b a;
#X obj 402 176 savepanel;
#X obj 402 137 r save-plot;
#X obj 204 53 gemhead 55;
#X connect 0 0 4 0;
#X connect 1 0 9 0;
#X connect 2 0 7 0;
#X connect 3 0 6 0;
#X connect 3 1 2 0;
#X connect 4 0 5 0;
#X connect 5 0 3 0;
#X connect 6 0 8 0;
#X connect 7 0 1 0;
#X connect 7 0 11 0;
#X connect 10 0 7 0;
#X connect 10 1 5 0;
#X connect 12 0 13 0;
#X connect 13 0 11 0;
#X connect 13 1 11 0;
#X connect 14 0 12 0;
#X connect 15 0 14 0;
#X connect 16 0 10 0;
#X restore 52 424 pd snapshot;
#X obj 176 134 bang;
#X obj 194 393 until;
#X obj 223 455 + 1;
#X obj 194 455 f;
#X obj 176 159 f;
#X obj 194 356 f;
#X msg 212 425 0;
#X obj 236 159 r num-frames;
#X obj 205 274 + 1;
#X obj 176 274 f;
#X obj 102 68 t a a;
#X obj 224 711 * 4;
#X obj 225 647 r num-frames;
#X obj 329 736 * 4;
#N canvas 694 99 545 571 analysis 0;
#X obj 95 152 r hop-samp;
#X obj 111 188 r window-size;
#X msg 58 241 analyze \$1 \$2;
#X obj 58 213 pack f f;
#N canvas 0 22 450 300 (subpatch) 0;
#X array ceps-table 47 float 2;
#X coords 0 1 47 0 200 140 1;
#X restore 286 59 graph;
#X obj 58 343 list prepend 0;
#X obj 201 256 r lb1;
#X msg 201 277 normalize 0;
#X obj 58 131 inlet;
#X obj 58 152 *;
#X obj 58 364 s ceps-table;
#X obj 58 308 bfcc spectrogram-sample 0.52;
#X connect 0 0 9 1;
#X connect 1 0 3 1;
#X connect 2 0 11 0;
#X connect 3 0 2 0;
#X connect 5 0 10 0;
#X connect 6 0 7 0;
#X connect 7 0 11 0;
#X connect 8 0 9 0;
#X connect 9 0 3 0;
#X connect 11 0 5 0;
#X restore 250 331 pd analysis;
#X obj 225 668 swap 1;
#X obj 225 690 /;
#X obj 329 690 swap 1;
#X obj 329 715 /;
#X obj 176 306 t b b b f f;
#X obj 194 752 rectangle;
#X obj 194 248 f;
#X obj 231 232 r frame-start;
#X obj 517 221 gemhead 60;
#X obj 517 412 rectangle 0.005 4;
#X obj 517 375 translateXYZ;
#X obj 544 323 r scrub-pos;
#X floatatom 544 344 5 0 0 0 - - -, f 5;
#X text 363 737 <--dimensions relative to gemwin (-4 to 4);
#X obj 194 486 t b f f;
#X obj 226 356 r num-bfccs;
#X obj 329 667 r num-bfccs;
#X obj 517 264 color 1 0 0;
#X connect 0 0 4 0;
#X connect 1 0 2 0;
#X connect 2 1 12 0;
#X connect 3 0 8 0;
#X connect 4 0 3 0;
#X connect 5 0 3 1;
#X connect 5 1 3 2;
#X connect 5 2 8 1;
#X connect 6 0 7 0;
#X connect 6 1 33 0;
#X connect 7 0 21 0;
#X connect 8 0 32 0;
#X connect 9 0 10 0;
#X connect 10 0 22 0;
#X connect 12 0 16 0;
#X connect 13 0 15 0;
#X connect 14 0 15 1;
#X connect 15 0 14 0;
#X connect 15 0 41 0;
#X connect 16 0 6 0;
#X connect 17 0 13 0;
#X connect 18 0 15 1;
#X connect 19 0 16 1;
#X connect 20 0 21 1;
#X connect 21 0 20 0;
#X connect 21 0 31 0;
#X connect 22 0 1 0;
#X connect 22 1 0 1;
#X connect 23 0 32 1;
#X connect 24 0 27 0;
#X connect 25 0 32 2;
#X connect 27 0 28 0;
#X connect 27 1 28 1;
#X connect 28 0 23 0;
#X connect 29 0 30 0;
#X connect 29 1 30 1;
#X connect 30 0 25 0;
#X connect 31 0 11 0;
#X connect 31 1 17 0;
#X connect 31 2 18 0;
#X connect 31 3 5 0;
#X connect 31 4 26 0;
#X connect 33 0 21 1;
#X connect 34 0 33 1;
#X connect 35 0 44 0;
#X connect 37 0 36 0;
#X connect 38 0 39 0;
#X connect 39 0 37 1;
#X connect 41 0 0 0;
#X connect 41 1 5 1;
#X connect 41 2 5 2;
#X connect 42 0 17 1;
#X connect 43 0 29 0;
#X connect 44 0 37 0;
#X restore 316 41 pd gem;
#N canvas 95 129 800 440 Gem.init 0;
#X msg 23 326 frame \$1;
#X floatatom 23 305 5 0 0 0 - - -, f 5;
#X obj 103 30 loadbang;
#X obj 451 354 r \$0-gemwin-settings;
#X obj 451 381 outlet;
#X obj 23 347 s \$0-gemwin-settings;
#X obj 172 372 s \$0-gemwin-settings;
#X obj 216 311 s \$0-gemwin-settings;
#X msg 172 341 color 0 0 0;
#X obj 599 179 s \$0-gemwin-settings;
#X obj 599 139 tgl 15 0 empty empty empty 17 7 0 10 -262144 -1 -1 0
1;
#X msg 599 158 fullscreen \$1;
#X obj 599 263 s \$0-gemwin-settings;
#X obj 599 223 tgl 15 0 empty empty empty 17 7 0 10 -262144 -1 -1 0
1;
#X msg 599 242 border \$1;
#X obj 351 206 s \$0-gemwin-settings;
#X msg 351 183 offset 600 0;
#X msg 475 67 reset;
#X obj 475 92 s \$0-gemwin-settings;
#X obj 341 146 s \$0-gemwin-settings;
#X obj 103 51 t b b b b b b b b;
#X obj 539 313 s \$0-gemwin-settings;
#X msg 539 292 print;
#X msg 216 290 dimen 800 800;
#X msg 23 277 30;
#X obj 307 264 s \$0-gemwin-settings;
#X msg 307 243 lighting \$1;
#X obj 307 224 tgl 15 0 empty empty empty 17 7 0 10 -262144 -1 -1 0
1;
#X msg 341 123 title cepstrogram;
#X connect 0 0 5 0;
#X connect 1 0 0 0;
#X connect 2 0 20 0;
#X connect 3 0 4 0;
#X connect 8 0 6 0;
#X connect 10 0 11 0;
#X connect 11 0 9 0;
#X connect 13 0 14 0;
#X connect 14 0 12 0;
#X connect 16 0 15 0;
#X connect 17 0 18 0;
#X connect 20 0 24 0;
#X connect 20 1 8 0;
#X connect 20 2 23 0;
#X connect 20 4 16 0;
#X connect 20 5 28 0;
#X connect 20 7 17 0;
#X connect 22 0 21 0;
#X connect 23 0 7 0;
#X connect 24 0 1 0;
#X connect 26 0 25 0;
#X connect 27 0 26 0;
#X connect 28 0 19 0;
#X restore 36 429 pd Gem.init;
#X obj 290 450 bng 15 250 50 0 render-plot empty render-plot 17 7 0
12 -228856 -1 -1;
#X floatatom 36 309 10 0 0 1 norm-scalar norm-scalar-set norm-scalar
, f 10;
#X floatatom 166 171 10 0 0 1 - window-size -, f 10;
#X floatatom 106 211 5 0 0 1 - overlap -, f 5;
#N canvas 537 22 903 761 param-settings 0;
#X obj 93 42 r sf-length;
#X obj 274 88 r window-size;
#X obj 306 236 /;
#X obj 306 257 s hop-samp;
#X obj 324 162 r overlap;
#X obj 59 391 s norm-scalar-set;
#X obj 34 324 s check-max;
#X obj 68 74 f;
#X obj 324 183 t b b f;
#X obj 324 204 s reset;
#X obj 274 109 t b f;
#X obj 274 130 s reset;
#X obj 68 16 r reset;
#X obj 574 221 list split 1;
#X obj 655 160 t f f;
#X obj 574 262 list split 1;
#X obj 574 100 t b f;
#X obj 574 481 list split 1;
#X obj 574 522 list split 1;
#X obj 574 360 t b f;
#X msg 574 397 256 512 1024 2048 4096 8192 16384 32768;
#X msg 574 127 1 2 4 8;
#X obj 614 294 s overlap;
#X obj 614 554 s window-size;
#X obj 574 79 r overlap-radio;
#X obj 574 339 r window-radio;
#X obj 260 481 *;
#X obj 278 458 r samplerate;
#X obj 281 359 r time-start;
#X obj 260 339 r time-end;
#X obj 260 533 /;
#X obj 300 517 r hop-samp;
#X obj 260 554 i;
#X obj 260 410 -;
#X obj 281 380 t b f;
#X obj 260 575 s num-frames;
#X obj 380 396 *;
#X obj 398 373 r samplerate;
#X obj 380 438 /;
#X obj 420 422 r hop-samp;
#X obj 380 459 i;
#X obj 380 480 s frame-start;
#X obj 39 448 r sf-length;
#X obj 57 485 r samplerate;
#X obj 39 529 s sf-time;
#X obj 39 508 /;
#X obj 39 549 s time-end-set;
#X obj 129 603 r reset;
#X obj 129 654 f;
#X obj 129 675 s time-end-set;
#X obj 147 629 r sf-time;
#X msg 86 680 0;
#X obj 86 701 s time-start-set;
#X obj 59 363 r max-ceps;
#X obj 448 184 r lb1;
#X msg 448 205 47;
#X obj 448 236 s num-bfccs-set;
#X obj 68 101 t b b f b;
#X msg 152 128 0;
#X obj 152 149 s time-start-set;
#X floatatom 118 279 10 0 0 0 - - -, f 10;
#X obj 118 297 s num-frames;
#X obj 118 249 i;
#X obj 150 228 r hop-samp;
#X obj 133 171 r window-size;
#X obj 118 206 -;
#X obj 118 228 /;
#X obj 640 193 + 1;
#X obj 657 422 t f f;
#X obj 642 455 + 1;
#X connect 0 0 7 0;
#X connect 1 0 10 0;
#X connect 2 0 3 0;
#X connect 4 0 8 0;
#X connect 7 0 57 0;
#X connect 8 0 9 0;
#X connect 8 1 2 0;
#X connect 8 2 2 1;
#X connect 10 0 11 0;
#X connect 10 1 2 0;
#X connect 12 0 7 0;
#X connect 13 0 15 0;
#X connect 14 0 67 0;
#X connect 14 1 15 1;
#X connect 15 1 22 0;
#X connect 16 0 21 0;
#X connect 16 1 14 0;
#X connect 17 0 18 0;
#X connect 18 1 23 0;
#X connect 19 0 20 0;
#X connect 19 1 68 0;
#X connect 20 0 17 0;
#X connect 21 0 13 0;
#X connect 24 0 16 0;
#X connect 25 0 19 0;
#X connect 26 0 30 0;
#X connect 27 0 26 1;
#X connect 28 0 34 0;
#X connect 29 0 33 0;
#X connect 30 0 32 0;
#X connect 31 0 30 1;
#X connect 32 0 35 0;
#X connect 33 0 26 0;
#X connect 34 0 33 0;
#X connect 34 1 33 1;
#X connect 34 1 36 0;
#X connect 36 0 38 0;
#X connect 37 0 36 1;
#X connect 38 0 40 0;
#X connect 39 0 38 1;
#X connect 40 0 41 0;
#X connect 42 0 45 0;
#X connect 43 0 45 1;
#X connect 45 0 44 0;
#X connect 45 0 46 0;
#X connect 47 0 48 0;
#X connect 47 0 51 0;
#X connect 48 0 49 0;
#X connect 50 0 48 1;
#X connect 51 0 52 0;
#X connect 53 0 5 0;
#X connect 54 0 55 0;
#X connect 55 0 56 0;
#X connect 57 1 6 0;
#X connect 57 2 65 0;
#X connect 57 3 58 0;
#X connect 58 0 59 0;
#X connect 60 0 61 0;
#X connect 62 0 60 0;
#X connect 63 0 66 1;
#X connect 64 0 65 1;
#X connect 65 0 66 0;
#X connect 66 0 62 0;
#X connect 67 0 13 1;
#X connect 68 0 69 0;
#X connect 68 1 18 1;
#X connect 69 0 17 1;
#X restore 316 62 pd param-settings;
#X floatatom 36 286 10 0 0 1 num-bfccs num-bfccs-set num-bfccs, f
10;
#N canvas 422 128 780 631 analysis 0;
#X msg 110 327 max;
#X obj 110 369 t f f;
#X obj 142 406 >;
#X obj 110 450 spigot;
#X msg 161 383 0;
#X obj 579 319 r hop-samp;
#X obj 595 355 r window-size;
#X msg 542 408 analyze \$1 \$2;
#X obj 542 380 pack f f;
#N canvas 0 22 450 300 (subpatch) 0;
#X array max-ceps-table 47 float 2;
#X coords 0 1 47 0 200 140 1;
#X restore 15 83 graph;
#X obj 542 510 list prepend 0;
#X obj 656 411 r lb1;
#X msg 656 432 normalize 0;
#X obj 542 319 *;
#X obj 369 172 until;
#X obj 369 233 f;
#X obj 403 233 + 1;
#X obj 369 70 r check-max;
#X obj 369 121 f;
#X obj 369 142 t f b;
#X obj 387 95 r num-frames;
#X obj 542 531 s max-ceps-table;
#X obj 110 516 s max-ceps;
#X obj 110 348 tabletool max-ceps-table;
#X obj 341 369 t f f;
#X obj 341 450 spigot;
#X obj 341 348 tabletool max-ceps-table;
#X msg 341 327 min;
#X obj 373 406 <;
#X obj 341 476 s min-ceps;
#X obj 369 254 t b b f;
#X msg 392 383 9999;
#X obj 110 491 -;
#X obj 387 209 f;
#X obj 424 193 r frame-start;
#X obj 542 475 bfcc spectrogram-sample 0.52;
#X connect 0 0 23 0;
#X connect 1 0 3 0;
#X connect 1 1 2 0;
#X connect 2 0 3 1;
#X connect 3 0 2 1;
#X connect 3 0 32 0;
#X connect 4 0 2 1;
#X connect 5 0 13 1;
#X connect 6 0 8 1;
#X connect 7 0 35 0;
#X connect 8 0 7 0;
#X connect 10 0 21 0;
#X connect 11 0 12 0;
#X connect 12 0 35 0;
#X connect 13 0 8 0;
#X connect 14 0 15 0;
#X connect 15 0 16 0;
#X connect 15 0 30 0;
#X connect 16 0 15 1;
#X connect 17 0 18 0;
#X connect 18 0 19 0;
#X connect 19 0 14 0;
#X connect 19 1 4 0;
#X connect 19 1 31 0;
#X connect 19 1 33 0;
#X connect 20 0 18 1;
#X connect 23 0 1 0;
#X connect 24 0 25 0;
#X connect 24 1 28 0;
#X connect 25 0 28 1;
#X connect 25 0 29 0;
#X connect 25 0 32 1;
#X connect 26 0 24 0;
#X connect 27 0 26 0;
#X connect 28 0 25 1;
#X connect 30 0 0 0;
#X connect 30 1 27 0;
#X connect 30 2 13 0;
#X connect 31 0 28 1;
#X connect 32 0 22 0;
#X connect 33 0 15 1;
#X connect 34 0 33 1;
#X connect 35 0 10 0;
#X restore 188 62 pd analysis;
#X obj 36 171 hradio 15 1 0 8 window-radio window-radio-set window-size
0 -8 0 12 -262144 -1 -1 3;
#X obj 36 211 hradio 15 1 0 4 overlap-radio overlap-radio-set overlap
0 -8 0 12 -262144 -1 -1 1;
#X floatatom 290 394 10 0 0 1 time-start time-start-set time-start
, f 10;
#X floatatom 290 417 10 0 0 1 time-end time-end-set time-end, f 10
;
#X obj 293 287 hsl 128 15 40 100 0 0 master-volume master-volume-set
master-volume 8 8 0 12 -262144 -1 -1 9525 1;
#X floatatom 290 357 10 0 0 1 total-time sf-time -, f 10;
#X obj 290 261 bng 15 250 50 0 stop-sf empty stop 17 7 0 12 -258113
-1 -1;
#N canvas 613 83 827 545 soundfile 0;
#X obj 42 494 dac~;
#X obj 42 372 tabplay~ spectrogram-sample;
#X obj 42 453 *~;
#X obj 42 31 r play-sf;
#X obj 86 311 r stop-sf;
#X msg 86 332 stop;
#X obj 421 462 soundfiler;
#X obj 578 382 table spectrogram-sample;
#X obj 421 403 openpanel;
#X obj 421 486 s sf-length;
#X msg 421 430 read -resize -maxsize 2.7e+08 \$1 spectrogram-sample
;
#X obj 421 382 r open-sf;
#X obj 264 72 r time-start;
#X obj 199 42 r time-end;
#X obj 231 131 -;
#X obj 231 208 *;
#X obj 249 185 r samplerate;
#X obj 42 282 list;
#X obj 100 236 pack f f;
#X obj 100 171 *;
#X obj 118 148 r samplerate;
#X obj 199 63 t b f;
#X obj 371 155 r play-sf;
#X obj 371 307 line;
#X obj 371 328 s scrub-pos;
#X obj 371 206 f;
#X msg 371 227 -4 \, 4 \$1;
#X obj 389 180 * 1000;
#X obj 389 252 r stop-sf;
#X msg 389 273 stop;
#X obj 264 93 t f b f;
#X obj 235 435 dbtorms;
#X obj 235 456 pack f 40;
#X obj 235 477 line~;
#X obj 235 344 r master-volume;
#X obj 235 366 moses 41;
#X obj 235 388 t b;
#X msg 235 410 0;
#X connect 1 0 2 0;
#X connect 2 0 0 0;
#X connect 2 0 0 1;
#X connect 3 0 17 0;
#X connect 4 0 5 0;
#X connect 5 0 1 0;
#X connect 6 0 9 0;
#X connect 8 0 10 0;
#X connect 10 0 6 0;
#X connect 11 0 8 0;
#X connect 12 0 30 0;
#X connect 13 0 21 0;
#X connect 14 0 15 0;
#X connect 14 0 27 0;
#X connect 15 0 18 1;
#X connect 16 0 15 1;
#X connect 17 0 1 0;
#X connect 18 0 17 1;
#X connect 19 0 18 0;
#X connect 20 0 19 1;
#X connect 21 0 19 0;
#X connect 21 1 14 0;
#X connect 22 0 25 0;
#X connect 23 0 24 0;
#X connect 25 0 26 0;
#X connect 26 0 23 0;
#X connect 27 0 25 1;
#X connect 28 0 29 0;
#X connect 29 0 23 0;
#X connect 30 0 19 0;
#X connect 30 1 14 0;
#X connect 30 2 14 1;
#X connect 31 0 32 0;
#X connect 32 0 33 0;
#X connect 33 0 2 1;
#X connect 34 0 35 0;
#X connect 35 0 36 0;
#X connect 35 1 31 0;
#X connect 36 0 37 0;
#X connect 37 0 31 0;
#X restore 188 41 pd soundfile;
#X obj 290 475 bng 15 250 50 0 save-plot empty export-to-file 17 7
0 12 -204786 -1 -1;
#N canvas 302 336 518 379 INSTRUCTIONS 1;
#X text 38 253 You can save your plot to a .JPG file by clicking the
"save-plot" button and typing in a file name. You can also play the
currently selected time segment of the file. A scrub bar will move
across the plot during playback.;
#X text 38 13 This patch plots bark-frequency cepstrograms using timbreID's
[bfcc] object. It requires GEM.;
#X text 38 53 To plot something \, first open a soundfile by clicking
the "open-soundfile" button. Then turn GEM rendering on using the checkbox
in the lower left corner. Next \, click the "render-plot" button in
the lower right corner.;
#X text 38 113 The patch automatically scales the colors relative to
the maximum and minimum BFCC values found across all frames in the
soundfile. By adjusting the "norm-scalar" number box and then rendering
the plot again \, you can adjust the color scale to make weaker components
more visible at the cost of saturating colors for strong components.
;
#X text 38 203 Some other useful settings to play with are start and
end time points in the file \, and number of BFCCs to display (defaults
to all 47 BFCCs).;
#X restore 36 62 pd INSTRUCTIONS;
#X obj 36 332 bng 15 250 50 0 check-max empty check-max 17 7 0 12 -262130
-1 -1;
#X obj 3 4 cnv 10 400 10 empty empty empty 20 12 0 14 -233017 -66577
0;
#X obj 3 4 cnv 10 10 400 empty empty empty 20 12 0 14 -233017 -66577
0;
#X connect 5 0 3 0;
